<svg width="57" height="13" viewBox="0 0 57 13" fill="none" xmlns="http://www.w3.org/2000/svg">
<path d="M3.02979 12.0026H0.515652L4.34647 0.905661H7.36994L11.1953 12.0026H8.68119L5.90155 3.44148H5.81486L3.02979 12.0026ZM2.87266 7.64074H8.81124V9.47217H2.87266V7.64074ZM12.4876 12.0026V3.67989H14.6875V5.14828H14.785C14.9584 4.66062 15.2474 4.27591 15.652 3.99415C16.0566 3.7124 16.5406 3.57152 17.1041 3.57152C17.6749 3.57152 18.1607 3.7142 18.5617 3.99957C18.9626 4.28133 19.2299 4.66423 19.3636 5.14828H19.4503C19.6201 4.67146 19.9271 4.29036 20.3714 4.00499C20.8193 3.71601 21.3485 3.57152 21.959 3.57152C22.7356 3.57152 23.366 3.81896 23.85 4.31384C24.3377 4.80511 24.5815 5.50228 24.5815 6.40535V12.0026H22.2787V6.86049C22.2787 6.39812 22.1559 6.05134 21.9102 5.82016C21.6646 5.58897 21.3576 5.47338 20.9891 5.47338C20.5701 5.47338 20.2432 5.60703 20.0084 5.87434C19.7736 6.13804 19.6562 6.48662 19.6562 6.9201V12.0026H17.4184V6.81173C17.4184 6.40354 17.301 6.07844 17.0662 5.83641C16.835 5.59439 16.5298 5.47338 16.1505 5.47338C15.894 5.47338 15.6628 5.5384 15.4569 5.66844C15.2546 5.79487 15.0939 5.97368 14.9747 6.20487C14.8555 6.43244 14.7959 6.69975 14.7959 7.00679V12.0026H12.4876ZM30.1652 12.1651C29.3235 12.1651 28.5957 11.9863 27.9816 11.6287C27.3711 11.2675 26.8997 10.7654 26.5674 10.1224C26.235 9.47578 26.0689 8.72623 26.0689 7.87374C26.0689 7.01401 26.235 6.26266 26.5674 5.61968C26.8997 4.97308 27.3711 4.47097 27.9816 4.11336C28.5957 3.75213 29.3235 3.57152 30.1652 3.57152C31.0068 3.57152 31.7329 3.75213 32.3434 4.11336C32.9575 4.47097 33.4307 4.97308 33.763 5.61968C34.0953 6.26266 34.2615 7.01401 34.2615 7.87374C34.2615 8.72623 34.0953 9.47578 33.763 10.1224C33.4307 10.7654 32.9575 11.2675 32.3434 11.6287C31.7329 11.9863 31.0068 12.1651 30.1652 12.1651ZM30.176 10.377C30.5589 10.377 30.8786 10.2687 31.1351 10.0519C31.3916 9.83159 31.5848 9.53177 31.7149 9.15248C31.8485 8.77319 31.9153 8.34152 31.9153 7.85748C31.9153 7.37344 31.8485 6.94177 31.7149 6.56248C31.5848 6.18319 31.3916 5.88337 31.1351 5.66302C30.8786 5.44268 30.5589 5.3325 30.176 5.3325C29.7895 5.3325 29.4644 5.44268 29.2007 5.66302C28.9406 5.88337 28.7438 6.18319 28.6101 6.56248C28.4801 6.94177 28.415 7.37344 28.415 7.85748C28.415 8.34152 28.4801 8.77319 28.6101 9.15248C28.7438 9.53177 28.9406 9.83159 29.2007 10.0519C29.4644 10.2687 29.7895 10.377 30.176 10.377ZM38.0706 0.905661V12.0026H35.7624V0.905661H38.0706ZM43.7126 12.1651C42.8565 12.1651 42.1196 11.9917 41.5019 11.6449C40.8878 11.2946 40.4146 10.7997 40.0822 10.1603C39.7499 9.51732 39.5837 8.75694 39.5837 7.87915C39.5837 7.02305 39.7499 6.27169 40.0822 5.6251C40.4146 4.9785 40.8824 4.47459 41.4856 4.11336C42.0925 3.75213 42.8041 3.57152 43.6205 3.57152C44.1695 3.57152 44.6807 3.66002 45.1539 3.83702C45.6307 4.01041 46.0461 4.2723 46.4001 4.62269C46.7577 4.97308 47.0359 5.41378 47.2345 5.94478C47.4332 6.47217 47.5325 7.08987 47.5325 7.79788V8.43183H40.5049V7.00137H45.3598C45.3598 6.66904 45.2875 6.37464 45.143 6.11817C44.9985 5.8617 44.7981 5.66122 44.5416 5.51673C44.2887 5.36862 43.9943 5.29457 43.6584 5.29457C43.308 5.29457 42.9973 5.37585 42.7264 5.5384C42.4591 5.69734 42.2496 5.91227 42.0979 6.18319C41.9462 6.4505 41.8685 6.74851 41.8649 7.07723V8.43725C41.8649 8.84905 41.9407 9.20486 42.0925 9.50468C42.2478 9.8045 42.4663 10.0357 42.7481 10.1982C43.0298 10.3608 43.364 10.4421 43.7505 10.4421C44.007 10.4421 44.2418 10.4059 44.4549 10.3337C44.668 10.2614 44.8504 10.1531 45.0021 10.0086C45.1539 9.8641 45.2695 9.6871 45.3489 9.47758L47.4838 9.61846C47.3754 10.1314 47.1533 10.5793 46.8173 10.9622C46.485 11.3415 46.0551 11.6377 45.5277 11.8508C45.004 12.0604 44.3989 12.1651 43.7126 12.1651ZM52.1057 12.138C51.4735 12.138 50.901 11.9755 50.388 11.6504C49.8787 11.3217 49.4741 10.8394 49.1743 10.2037C48.8781 9.56428 48.73 8.78042 48.73 7.85206C48.73 6.89842 48.8835 6.10553 49.1906 5.47338C49.4976 4.83762 49.9058 4.36261 50.4151 4.04834C50.9281 3.73046 51.4898 3.57152 52.1003 3.57152C52.5662 3.57152 52.9546 3.65099 53.2652 3.80993C53.5795 3.96526 53.8323 4.16032 54.0238 4.39512C54.2189 4.6263 54.367 4.85388 54.4681 5.07784H54.5385V0.905661H56.8414V12.0026H54.5656V10.6696H54.4681C54.3597 10.9008 54.2062 11.1302 54.0075 11.3578C53.8125 11.5817 53.5578 11.7678 53.2435 11.9159C52.9329 12.064 52.5536 12.138 52.1057 12.138ZM52.8372 10.3012C53.2092 10.3012 53.5235 10.2 53.78 9.99775C54.0401 9.79185 54.2387 9.50468 54.376 9.13622C54.5169 8.76777 54.5873 8.33611 54.5873 7.84122C54.5873 7.34634 54.5187 6.91648 54.3814 6.55164C54.2441 6.1868 54.0455 5.90505 53.7854 5.70637C53.5253 5.5077 53.2092 5.40836 52.8372 5.40836C52.4579 5.40836 52.1382 5.51131 51.8781 5.71721C51.618 5.92311 51.4212 6.20848 51.2875 6.57332C51.1538 6.93816 51.087 7.36079 51.087 7.84122C51.087 8.32527 51.1538 8.75332 51.2875 9.12539C51.4248 9.49384 51.6216 9.78282 51.8781 9.99233C52.1382 10.1982 52.4579 10.3012 52.8372 10.3012Z" fill="#2B2A29"/>
</svg>
