<svg width="21" height="36" viewBox="0 0 21 36" fill="none" xmlns="http://www.w3.org/2000/svg">
<path fill-rule="evenodd" clip-rule="evenodd" d="M2.72928 32.9958V20.5005C2.72928 20.2826 2.8176 20.0848 2.96064 19.9427C3.10272 19.8006 3.30048 19.7114 3.5184 19.7114H17.689C17.9059 19.7114 18.1037 19.8006 18.2467 19.9427C18.3898 20.0848 18.4781 20.2826 18.4781 20.5005V32.9958C18.4781 33.2138 18.3898 33.4115 18.2467 33.5536C18.1027 33.6957 17.905 33.7849 17.689 33.7849H3.51936C3.3024 33.7849 3.10464 33.6957 2.9616 33.5536C2.81856 33.4115 2.73024 33.2138 2.73024 32.9958H2.72928ZM4.30752 27.5373V32.2067H16.8998V27.5373H4.30752ZM16.8998 25.9591V21.2896H4.30752V25.9591H16.8998ZM4.60512 5.17504V2.18177C4.60512 1.62881 4.82976 1.12769 5.19264 0.764808C5.55552 0.401928 6.05664 0.177277 6.6096 0.177277H14.5987C15.1517 0.177277 15.6528 0.401928 16.0157 0.764808C16.3786 1.12769 16.6032 1.62881 16.6032 2.18177V5.17504H18.6643C19.175 5.17504 19.6397 5.38335 19.9757 5.71935C20.3117 6.05439 20.52 6.51905 20.52 7.02977L20.519 33.9702C20.52 34.481 20.3117 34.9446 19.9757 35.2806C19.6397 35.6176 19.175 35.8249 18.6643 35.8249H2.544C2.03328 35.8249 1.56864 35.6166 1.23264 35.2806C0.896642 34.9456 0.688324 34.481 0.688324 33.9702V7.02977C0.688324 6.51809 0.896642 6.05439 1.23264 5.71839C1.56864 5.38239 2.03328 5.17408 2.544 5.17408H4.60512V5.17504ZM18.8602 6.83393C18.8102 6.78401 18.7411 6.75232 18.6643 6.75232H2.544C2.4672 6.75232 2.39808 6.78401 2.34816 6.83393C2.29728 6.88385 2.26656 6.95297 2.26656 7.02977V33.9702C2.26656 34.047 2.29728 34.1162 2.3472 34.1661C2.39808 34.216 2.4672 34.2477 2.544 34.2477H18.6643C18.7411 34.2477 18.8102 34.217 18.8602 34.1671C18.9101 34.1171 18.9418 34.0471 18.9418 33.9712V7.03073C18.9418 6.95393 18.911 6.88481 18.8602 6.83489V6.83393ZM14.9002 1.87935C14.8234 1.80255 14.7168 1.75457 14.5987 1.75457H6.6096C6.49248 1.75457 6.38496 1.80256 6.30816 1.88032C6.23136 1.95712 6.1824 2.06465 6.1824 2.18177V5.17504H15.025V2.18177C15.025 2.06369 14.977 1.95711 14.9002 1.87935V1.87935ZM8.3424 3.376C8.19936 3.23296 8.11104 3.0352 8.11104 2.81824C8.11104 2.60032 8.19936 2.40255 8.3424 2.26047C8.48448 2.11839 8.68224 2.02912 8.90016 2.02912H11.4595C11.6774 2.02912 11.8752 2.11743 12.0173 2.26047C12.1594 2.40255 12.2486 2.60032 12.2486 2.81824C12.2486 3.0352 12.1603 3.23296 12.0173 3.376C11.8752 3.51904 11.6774 3.60735 11.4595 3.60735H8.90016C8.6832 3.60735 8.48544 3.51904 8.3424 3.376ZM6.40032 2.52447C6.47136 2.34015 6.61248 2.17985 6.82272 2.09057C7.00224 2.01665 7.19616 2.01375 7.36896 2.06943C7.54272 2.12607 7.69824 2.24319 7.79808 2.40543C7.896 2.56671 7.92768 2.74049 7.90656 2.90369C7.88736 3.05633 7.82112 3.20031 7.72512 3.31647C7.6272 3.43263 7.4976 3.52481 7.35072 3.57089C7.19424 3.61985 7.01856 3.62081 6.84192 3.55265C6.63168 3.47105 6.48672 3.31648 6.40992 3.13504C6.36864 3.03904 6.34752 2.93345 6.3456 2.83073C6.34464 2.72609 6.36288 2.62049 6.40032 2.52353V2.52447Z" fill="#2B2A29"/>
</svg>
