<svg width="41" height="32" viewBox="0 0 41 32" fill="none" xmlns="http://www.w3.org/2000/svg">
<path fill-rule="evenodd" clip-rule="evenodd" d="M36.6093 4.64065H27.9578L26.1434 0.974396C25.9206 0.524156 25.4618 0.240005 24.9606 0.240005H18.4259C17.9248 0.240005 17.4659 0.524156 17.2432 0.974396L15.4278 4.64065H4.59807C2.48703 4.64065 0.769592 6.35808 0.769592 8.46816V27.6048C0.769592 29.7159 2.48703 31.4333 4.59807 31.4333H36.6093C38.7203 31.4333 40.4378 29.7159 40.4378 27.6048V8.46816C40.4378 6.35712 38.7203 4.64065 36.6093 4.64065ZM25.4224 13.0973C21.7427 13.0973 18.7494 16.0983 18.7494 19.7875C18.7494 23.4768 21.7427 26.4778 25.4224 26.4778C29.1011 26.4778 32.0944 23.4768 32.0944 19.7875C32.0944 16.0983 29.1011 13.0973 25.4224 13.0973ZM25.4224 23.8378C23.1981 23.8378 21.3904 22.0205 21.3904 19.7875C21.3904 17.5546 23.199 15.7373 25.4224 15.7373C27.6458 15.7373 29.4544 17.5546 29.4544 19.7875C29.4544 22.0205 27.6458 23.8378 25.4224 23.8378ZM19.2448 2.88097H24.1398L25.0106 4.64065H18.3731L19.2438 2.88097H19.2448ZM36.6093 7.28065C37.265 7.28065 37.7978 7.81344 37.7978 8.46816V11.1744H32.9392C30.929 9.408 28.2986 8.33569 25.4224 8.33569C22.5462 8.33569 19.9149 9.408 17.9056 11.1744H3.41055V8.46816C3.41055 7.81344 3.94335 7.27969 4.59807 7.27969H36.6093V7.28065ZM25.4224 28.5994C20.5811 28.5994 16.6442 24.6461 16.6442 19.7875C16.6442 14.929 20.5821 10.9757 25.4224 10.9757C30.2627 10.9757 34.2006 14.928 34.2006 19.7875C34.2006 24.6461 30.2627 28.5994 25.4224 28.5994V28.5994ZM3.41055 27.6058V13.8154H15.6842C14.6195 15.5558 14.0042 17.6006 14.0042 19.7885C14.0042 23.4384 15.7158 26.6957 18.377 28.7942H4.59903C3.94335 28.7942 3.41151 28.2615 3.41151 27.6067L3.41055 27.6058ZM36.6093 28.7933H32.4678C35.1289 26.6947 36.8406 23.4384 36.8406 19.7875C36.8406 17.6007 36.2253 15.5549 35.1606 13.8144H37.7968V27.6048C37.7968 28.2595 37.264 28.7923 36.6093 28.7923V28.7933Z" fill="#2B2A29"/>
</svg>
