<?xml version="1.0" encoding="UTF-8"?>
<!DOCTYPE svg PUBLIC "-//W3C//DTD SVG 1.1//EN" "http://www.w3.org/Graphics/SVG/1.1/DTD/svg11.dtd">
<!-- Creator: CorelDRAW -->
<svg xmlns="http://www.w3.org/2000/svg" xml:space="preserve" width="0.240626in" height="0.4in" version="1.1" style="shape-rendering:geometricPrecision; text-rendering:geometricPrecision; image-rendering:optimizeQuality; fill-rule:evenodd; clip-rule:evenodd"
viewBox="0 0 1559.91 2593.08"
 xmlns:xlink="http://www.w3.org/1999/xlink"
 xmlns:xodm="http://www.corel.com/coreldraw/odm/2003">
 <defs>
  <style type="text/css">
   <![CDATA[
    .fil0 {fill:#2B2A29}
   ]]>
  </style>
 </defs>
 <g id="Layer_x0020_1">
  <metadata id="CorelCorpID_0Corel-Layer"/>
  <path class="fil0" d="M131.67 2314.51l0 -2035.95c0,-77.84 49.33,-146.88 121.56,-146.88l1053.44 0c72.23,0 121.56,69.04 121.56,146.88l0 2035.95c0,77.84 -49.33,146.88 -121.56,146.88l-1053.44 0c-72.23,0 -121.56,-69.04 -121.56,-146.88zm344.4 -2035.95l0 5.05c0,82.03 131.7,82.03 131.7,0 0,-95.05 -131.7,-83.31 -131.7,-5.05zm217.78 -5.08c0,49.82 26.54,75.98 86.09,75.98l217.78 0c115.44,0 115.44,-136.75 0,-136.75l-227.89 0c-36.57,0 -75.98,25.52 -75.98,60.77zm-45.58 1975.19c0,168.88 263.37,168.88 263.37,0 0,-173.5 -263.37,-173.5 -263.37,0zm-648.27 -1990.37l0 2076.48c0,132.69 116.61,258.29 248.16,258.29l1063.57 0c131.57,0 248.18,-125.6 248.18,-258.29l0 -2076.48c0,-132.72 -116.61,-258.29 -248.18,-258.29l-1063.57 0c-131.54,0 -248.16,125.57 -248.16,258.29z"/>
 </g>
</svg>
