<svg width="44" height="36" viewBox="0 0 44 36" fill="none" xmlns="http://www.w3.org/2000/svg">
<path fill-rule="evenodd" clip-rule="evenodd" d="M28.2777 14.2704C28.2777 15.433 28.0781 15.3168 27.4089 16.1712L22.9603 21.4771C22.871 21.5798 22.4918 21.8563 22.8585 21.8563H31.5888C32.6717 21.8563 33.6365 21.384 33.6365 20.351V6.26208C33.6365 5.8224 33.3302 5.35391 33.0624 5.14943C32.6841 4.86047 32.3433 4.75681 31.7097 4.75681H24.3638C24.1411 4.75681 24.1603 5.02465 24.0374 5.45377L22.8682 9.40512C22.6752 10.0704 23.1312 10.1962 23.6774 10.561L27.4109 13.0291C27.7997 13.2845 28.2777 13.6656 28.2777 14.2704V14.2704Z" fill="#2B2A29"/>
<path fill-rule="evenodd" clip-rule="evenodd" d="M16.7779 26.1312C16.7779 26.2723 16.991 26.9904 17.4941 26.3654C18.6086 24.9801 19.8758 23.5805 20.9836 22.2086C21.4012 21.6921 21.8304 21.2208 22.248 20.7034L26.6697 15.432C27.0681 14.9616 27.2544 14.9078 27.2544 14.4509C27.2544 14.0256 26.4355 13.6243 25.9056 13.271C25.632 13.0886 25.4035 12.937 25.1472 12.7651C24.479 12.3178 22.5283 11.135 22.1203 10.6742C21.5433 10.0234 21.8457 9.25919 22.055 8.52959C22.176 8.10815 22.2767 7.78848 22.3977 7.36704L23.7408 2.80896C23.9222 2.17632 24.3638 0.957121 24.3638 0.360961C24.3638 0.208321 24.1804 0 24.0028 0C23.7398 0 21.7852 2.42688 21.3388 2.8752C21.1843 3.02976 21.168 3.07391 21.0345 3.23327C20.9117 3.38015 20.8003 3.456 20.6822 3.60288L13.5033 11.7206C13.1673 12.3801 13.9622 12.6902 14.6582 13.1366C15.2285 13.5024 15.7382 13.8883 16.3209 14.2435C16.9238 14.6112 17.4038 14.9674 18.0009 15.3331C19.4678 16.2307 18.7776 17.5344 18.3667 19.3507C18.192 20.1226 18.0076 20.8013 17.8358 21.5894C17.7331 22.0627 16.7779 25.8173 16.7779 26.1302V26.1312Z" fill="#2B2A29"/>
<path fill-rule="evenodd" clip-rule="evenodd" d="M34.6598 16.4976C35.494 16.4976 36.8275 16.6954 36.8275 16.0762V10.537C36.8275 9.91776 35.494 10.1155 34.6598 10.1155V16.4976V16.4976Z" fill="#2B2A29"/>
<path fill-rule="evenodd" clip-rule="evenodd" d="M6.54239 19.0262C6.54239 19.319 6.55583 19.6886 7.02431 19.6886H17.2598C17.2646 19.4976 17.4393 18.7325 17.5008 18.6048C17.111 18.6048 7.16159 18.5443 6.88031 18.6422C6.73055 18.6941 6.54239 18.8611 6.54239 19.0262Z" fill="#2B2A29"/>
<path fill-rule="evenodd" clip-rule="evenodd" d="M15.4531 8.00832C15.5203 7.75584 15.7334 7.66272 15.8832 7.47552C16.0425 7.2768 16.2374 7.10112 16.3565 6.92448H8.16763C7.71451 6.92448 7.36987 6.84289 7.16347 7.12609C6.97723 7.38145 7.01755 7.7184 7.26139 7.8912C7.56091 8.10432 10.2211 8.00832 10.6963 8.00832C12.2822 8.00832 13.8672 8.00832 15.4531 8.00832V8.00832Z" fill="#2B2A29"/>
<path fill-rule="evenodd" clip-rule="evenodd" d="M6.00094 13.1866C6.00094 14.017 6.59135 13.849 7.62623 13.849H13.7673C13.6387 13.6733 13.2787 13.4995 13.0685 13.343C12.959 13.2614 12.8448 13.151 12.7622 13.0474C12.6576 12.9168 12.6259 12.7651 12.4425 12.7651H6.54239C6.29375 12.7651 6 12.9677 6 13.1866H6.00094Z" fill="#2B2A29"/>
<path fill-rule="evenodd" clip-rule="evenodd" d="M13.4064 4.27488C13.4064 4.52256 13.6483 4.81727 13.9488 4.81727H18.1632C18.3417 4.81727 18.792 4.17791 18.9321 4.02047C19.0454 3.89279 19.0924 3.87455 19.1865 3.73343H14.4902C14.2637 3.73343 13.4064 3.60576 13.4064 4.27584V4.27488Z" fill="#2B2A29"/>
<path fill-rule="evenodd" clip-rule="evenodd" d="M17.8617 17.04C17.8838 16.7722 17.953 16.5504 17.6246 16.3142C17.4758 16.2077 17.1321 15.9562 16.8989 15.9562H13.4064C12.9245 15.9562 12.7468 16.56 13.0358 16.8682C13.2931 17.1418 14.0496 17.04 14.5507 17.04C15.6547 17.04 16.7587 17.04 17.8617 17.04V17.04Z" fill="#2B2A29"/>
<path fill-rule="evenodd" clip-rule="evenodd" d="M12.383 22.2173C12.383 23.0928 12.9331 22.8797 14.1888 22.8797C14.951 22.8797 15.7142 22.8797 16.4765 22.8797C16.5072 22.512 16.6867 22.1635 16.7174 21.7959C16.3008 21.7959 12.935 21.7085 12.6374 21.8707C12.527 21.9312 12.3821 22.0723 12.3821 22.2173H12.383Z" fill="#2B2A29"/>
<path fill-rule="evenodd" clip-rule="evenodd" d="M8.64957 16.4976C8.64957 16.7952 8.89344 17.04 9.192 17.04H11.2992C12.0777 17.04 11.9443 15.9562 11.4202 15.9562H9.19294C8.89534 15.9562 8.65055 16.2 8.65055 16.4976H8.64957Z" fill="#2B2A29"/>
<path fill-rule="evenodd" clip-rule="evenodd" d="M8.64957 22.3382C8.64957 23.0957 9.77853 22.8797 10.8173 22.8797C11.4998 22.8797 11.5152 21.7958 10.7568 21.7958C9.75263 21.7958 8.64957 21.5856 8.64957 22.3382Z" fill="#2B2A29"/>
<path fill-rule="evenodd" clip-rule="evenodd" d="M9.7334 4.21535C9.7334 5.02751 10.5206 4.81727 11.8406 4.81727C12.5779 4.81727 12.504 3.73343 11.9616 3.73343H10.2153C9.92348 3.73343 9.7334 3.92351 9.7334 4.21535Z" fill="#2B2A29"/>
<path fill-rule="evenodd" clip-rule="evenodd" d="M11.2992 10.1155C11.2992 10.823 12.215 10.6579 12.9254 10.6579C13.078 10.6579 13.8941 9.7776 13.9488 9.57408C13.4265 9.57408 12.9052 9.57504 12.383 9.57408C11.806 9.57216 11.2992 9.54335 11.2992 10.1165V10.1155Z" fill="#2B2A29"/>
<path fill-rule="evenodd" clip-rule="evenodd" d="M8.10815 10.1155C8.10815 10.823 9.02399 10.6579 9.73439 10.6579C10.4467 10.6579 10.4467 9.57408 9.73439 9.57408C9.02495 9.57408 8.10815 9.40799 8.10815 10.1155Z" fill="#2B2A29"/>
<path d="M0.462461 33.8703V28.5495H3.98548V29.477H1.58744V30.7448H3.75165V31.6723H1.58744V33.8703H0.462461ZM5.80934 33.9456C5.55473 33.9456 5.32783 33.9015 5.12864 33.8131C4.92945 33.7231 4.77183 33.5906 4.65579 33.4156C4.54147 33.239 4.48431 33.019 4.48431 32.7557C4.48431 32.534 4.52501 32.3478 4.60642 32.1971C4.68783 32.0465 4.79868 31.9252 4.93898 31.8334C5.07927 31.7416 5.23862 31.6723 5.41703 31.6256C5.59716 31.5788 5.78596 31.5459 5.98341 31.5268C6.21551 31.5026 6.40257 31.4801 6.5446 31.4593C6.68663 31.4368 6.78969 31.4039 6.85377 31.3606C6.91786 31.3173 6.9499 31.2532 6.9499 31.1683V31.1527C6.9499 30.9882 6.89794 30.8609 6.79402 30.7708C6.69183 30.6807 6.54633 30.6357 6.35754 30.6357C6.15835 30.6357 5.99987 30.6799 5.88209 30.7682C5.76431 30.8548 5.68636 30.9639 5.64826 31.0956L4.62461 31.0124C4.67657 30.7699 4.77876 30.5604 4.93118 30.3837C5.0836 30.2053 5.28019 30.0685 5.52095 29.9732C5.76344 29.8762 6.04403 29.8277 6.36273 29.8277C6.58444 29.8277 6.79661 29.8537 6.99927 29.9056C7.20365 29.9576 7.38465 30.0381 7.54227 30.1473C7.70162 30.2564 7.82719 30.3967 7.91899 30.5682C8.01079 30.7379 8.05669 30.9414 8.05669 31.1787V33.8703H7.00706V33.3169H6.97588C6.9118 33.4416 6.82606 33.5516 6.71867 33.6469C6.61128 33.7404 6.48225 33.814 6.33156 33.8677C6.18087 33.9197 6.00679 33.9456 5.80934 33.9456ZM6.12631 33.1818C6.28912 33.1818 6.43288 33.1498 6.55759 33.0857C6.6823 33.0199 6.78016 32.9315 6.85117 32.8207C6.92219 32.7098 6.9577 32.5843 6.9577 32.444V32.0205C6.92306 32.043 6.87542 32.0638 6.8148 32.0828C6.75591 32.1001 6.68923 32.1166 6.61475 32.1322C6.54027 32.146 6.46579 32.159 6.39131 32.1712C6.31683 32.1816 6.24928 32.1911 6.18866 32.1997C6.05876 32.2188 5.94531 32.2491 5.84831 32.2907C5.75131 32.3322 5.67597 32.3885 5.62228 32.4595C5.56858 32.5288 5.54174 32.6154 5.54174 32.7194C5.54174 32.87 5.5963 32.9852 5.70542 33.0649C5.81627 33.1428 5.95656 33.1818 6.12631 33.1818ZM12.2357 31.0176L11.2225 31.08C11.2051 30.9934 11.1679 30.9154 11.1108 30.8461C11.0536 30.7751 10.9782 30.7188 10.8847 30.6773C10.7929 30.634 10.6829 30.6123 10.5548 30.6123C10.3833 30.6123 10.2387 30.6487 10.1209 30.7214C10.0031 30.7925 9.94421 30.8877 9.94421 31.0072C9.94421 31.1025 9.98231 31.183 10.0585 31.2488C10.1347 31.3147 10.2655 31.3675 10.4508 31.4073L11.1731 31.5528C11.5611 31.6325 11.8503 31.7607 12.0409 31.9373C12.2314 32.114 12.3267 32.3461 12.3267 32.6336C12.3267 32.8952 12.2496 33.1247 12.0954 33.3221C11.943 33.5196 11.7334 33.6737 11.4667 33.7846C11.2017 33.8937 10.896 33.9482 10.5496 33.9482C10.0213 33.9482 9.60039 33.8383 9.28689 33.6183C8.97512 33.3966 8.79238 33.0952 8.73869 32.7142L9.82729 32.657C9.8602 32.8181 9.93988 32.9411 10.0663 33.0259C10.1928 33.1091 10.3547 33.1506 10.5522 33.1506C10.7462 33.1506 10.902 33.1134 11.0198 33.0389C11.1393 32.9627 11.2 32.8648 11.2017 32.7453C11.2 32.6449 11.1575 32.5626 11.0744 32.4985C10.9912 32.4327 10.8631 32.3825 10.6899 32.3478L9.99877 32.2101C9.60905 32.1322 9.31893 31.9971 9.12841 31.8048C8.93961 31.6126 8.84521 31.3675 8.84521 31.0696C8.84521 30.8132 8.9145 30.5924 9.05306 30.4071C9.19336 30.2217 9.38995 30.0789 9.64283 29.9784C9.89744 29.8779 10.1954 29.8277 10.5366 29.8277C11.0406 29.8277 11.4372 29.9342 11.7265 30.1473C12.0175 30.3603 12.1872 30.6504 12.2357 31.0176ZM15.1462 29.8797V30.711H12.743V29.8797H15.1462ZM13.2886 28.9236H14.3954V32.644C14.3954 32.7462 14.411 32.8259 14.4422 32.883C14.4733 32.9385 14.5166 32.9774 14.5721 32.9999C14.6292 33.0225 14.695 33.0337 14.7695 33.0337C14.8215 33.0337 14.8734 33.0294 14.9254 33.0207C14.9774 33.0103 15.0172 33.0025 15.0449 32.9973L15.219 33.8209C15.1636 33.8383 15.0856 33.8582 14.9852 33.8807C14.8847 33.9049 14.7626 33.9197 14.6188 33.9249C14.3521 33.9353 14.1183 33.8997 13.9173 33.8183C13.7182 33.7369 13.5631 33.6105 13.4523 33.439C13.3414 33.2675 13.2869 33.051 13.2886 32.7895V28.9236ZM22.2761 30.4123H21.1381C21.1173 30.265 21.0749 30.1343 21.0108 30.02C20.9467 29.9039 20.8644 29.8052 20.764 29.7238C20.6635 29.6424 20.5475 29.58 20.4158 29.5367C20.2859 29.4934 20.1448 29.4718 19.9923 29.4718C19.7169 29.4718 19.477 29.5402 19.2727 29.677C19.0683 29.8121 18.9098 30.0096 18.7972 30.2694C18.6846 30.5275 18.6283 30.841 18.6283 31.2099C18.6283 31.5892 18.6846 31.9079 18.7972 32.166C18.9115 32.424 19.0709 32.6189 19.2753 32.7505C19.4796 32.8822 19.7161 32.948 19.9845 32.948C20.1352 32.948 20.2747 32.9281 20.4028 32.8882C20.5327 32.8484 20.6479 32.7904 20.7484 32.7142C20.8488 32.6362 20.932 32.5418 20.9978 32.431C21.0653 32.3201 21.1121 32.1937 21.1381 32.0517L22.2761 32.0568C22.2466 32.3011 22.173 32.5366 22.0552 32.7635C21.9392 32.9887 21.7824 33.1905 21.585 33.3689C21.3892 33.5455 21.1554 33.6858 20.8835 33.7898C20.6133 33.892 20.3076 33.943 19.9664 33.943C19.4918 33.943 19.0674 33.8357 18.6933 33.6209C18.3209 33.4061 18.0264 33.0952 17.8099 32.6882C17.5952 32.2811 17.4878 31.7884 17.4878 31.2099C17.4878 30.6296 17.5969 30.136 17.8151 29.729C18.0334 29.3219 18.3296 29.0119 18.7037 28.7989C19.0778 28.5841 19.4987 28.4767 19.9664 28.4767C20.2747 28.4767 20.5605 28.52 20.8237 28.6066C21.0887 28.6932 21.3234 28.8197 21.5278 28.9859C21.7322 29.1505 21.8985 29.3523 22.0266 29.5913C22.1565 29.8303 22.2397 30.104 22.2761 30.4123ZM24.1688 31.5632V33.8703H23.062V28.5495H24.1376V30.5837H24.1844C24.2744 30.3482 24.4199 30.1637 24.6208 30.0304C24.8218 29.8953 25.0738 29.8277 25.3769 29.8277C25.654 29.8277 25.8956 29.8883 26.1018 30.0096C26.3096 30.1291 26.4707 30.3014 26.585 30.5266C26.701 30.75 26.7582 31.0176 26.7565 31.3294V33.8703H25.6497V31.5268C25.6514 31.2809 25.5891 31.0895 25.4626 30.9527C25.3379 30.8158 25.163 30.7474 24.9378 30.7474C24.7871 30.7474 24.6537 30.7795 24.5377 30.8436C24.4234 30.9076 24.3333 31.0012 24.2675 31.1241C24.2034 31.2454 24.1705 31.3917 24.1688 31.5632ZM28.7655 33.9456C28.5108 33.9456 28.2839 33.9015 28.0848 33.8131C27.8856 33.7231 27.7279 33.5906 27.6119 33.4156C27.4976 33.239 27.4404 33.019 27.4404 32.7557C27.4404 32.534 27.4811 32.3478 27.5625 32.1971C27.6439 32.0465 27.7548 31.9252 27.8951 31.8334C28.0354 31.7416 28.1947 31.6723 28.3731 31.6256C28.5533 31.5788 28.7421 31.5459 28.9395 31.5268C29.1716 31.5026 29.3587 31.4801 29.5007 31.4593C29.6427 31.4368 29.7458 31.4039 29.8099 31.3606C29.874 31.3173 29.906 31.2532 29.906 31.1683V31.1527C29.906 30.9882 29.8541 30.8609 29.7501 30.7708C29.6479 30.6807 29.5024 30.6357 29.3136 30.6357C29.1145 30.6357 28.956 30.6799 28.8382 30.7682C28.7204 30.8548 28.6425 30.9639 28.6044 31.0956L27.5807 31.0124C27.6327 30.7699 27.7349 30.5604 27.8873 30.3837C28.0397 30.2053 28.2363 30.0685 28.4771 29.9732C28.7196 29.8762 29.0001 29.8277 29.3188 29.8277C29.5405 29.8277 29.7527 29.8537 29.9554 29.9056C30.1598 29.9576 30.3408 30.0381 30.4984 30.1473C30.6577 30.2564 30.7833 30.3967 30.8751 30.5682C30.9669 30.7379 31.0128 30.9414 31.0128 31.1787V33.8703H29.9632V33.3169H29.932C29.8679 33.4416 29.7822 33.5516 29.6748 33.6469C29.5674 33.7404 29.4384 33.814 29.2877 33.8677C29.137 33.9197 28.9629 33.9456 28.7655 33.9456ZM29.0824 33.1818C29.2452 33.1818 29.389 33.1498 29.5137 33.0857C29.6384 33.0199 29.7363 32.9315 29.8073 32.8207C29.8783 32.7098 29.9138 32.5843 29.9138 32.444V32.0205C29.8792 32.043 29.8315 32.0638 29.7709 32.0828C29.712 32.1001 29.6453 32.1166 29.5709 32.1322C29.4964 32.146 29.4219 32.159 29.3474 32.1712C29.2729 32.1816 29.2054 32.1911 29.1448 32.1997C29.0149 32.2188 28.9014 32.2491 28.8044 32.2907C28.7074 32.3322 28.6321 32.3885 28.5784 32.4595C28.5247 32.5288 28.4978 32.6154 28.4978 32.7194C28.4978 32.87 28.5524 32.9852 28.6615 33.0649C28.7724 33.1428 28.9127 33.1818 29.0824 33.1818ZM31.8715 33.8703V29.8797H32.9445V30.5759H32.9861C33.0588 30.3283 33.1809 30.1412 33.3524 30.0148C33.5239 29.8866 33.7213 29.8225 33.9448 29.8225C34.0002 29.8225 34.0599 29.826 34.124 29.8329C34.1881 29.8398 34.2444 29.8494 34.2929 29.8615V30.8436C34.2409 30.828 34.1691 30.8141 34.0773 30.802C33.9855 30.7899 33.9014 30.7838 33.8252 30.7838C33.6624 30.7838 33.5169 30.8193 33.3888 30.8903C33.2623 30.9596 33.1619 31.0566 33.0874 31.1813C33.0146 31.306 32.9783 31.4498 32.9783 31.6126V33.8703H31.8715ZM36.4772 35.4499C36.1187 35.4499 35.8113 35.4006 35.5549 35.3018C35.3003 35.2048 35.0977 35.0723 34.947 34.9043C34.7963 34.7363 34.6984 34.5475 34.6534 34.338L35.677 34.2003C35.7082 34.2799 35.7576 34.3544 35.8251 34.4237C35.8927 34.493 35.9819 34.5484 36.0927 34.59C36.2053 34.6333 36.3421 34.6549 36.5032 34.6549C36.744 34.6549 36.9423 34.596 37.0982 34.4782C37.2558 34.3622 37.3346 34.1673 37.3346 33.8937V33.1636H37.2878C37.2394 33.2745 37.1666 33.3793 37.0696 33.478C36.9726 33.5767 36.8479 33.6573 36.6955 33.7196C36.5431 33.782 36.3612 33.8131 36.1499 33.8131C35.8502 33.8131 35.5774 33.7439 35.3315 33.6053C35.0873 33.465 34.8924 33.2511 34.7469 32.9636C34.6032 32.6743 34.5313 32.3089 34.5313 31.8672C34.5313 31.4151 34.6049 31.0375 34.7521 30.7344C34.8993 30.4313 35.0951 30.2044 35.3393 30.0537C35.5852 29.9031 35.8546 29.8277 36.1473 29.8277C36.3707 29.8277 36.5578 29.8658 36.7085 29.942C36.8592 30.0165 36.9804 30.11 37.0722 30.2226C37.1657 30.3335 37.2376 30.4426 37.2878 30.55H37.3294V29.8797H38.4284V33.9093C38.4284 34.2488 38.3453 34.5328 38.179 34.7614C38.0127 34.9901 37.7824 35.1615 37.4879 35.2759C37.1952 35.3919 36.8583 35.4499 36.4772 35.4499ZM36.5006 32.9818C36.679 32.9818 36.8297 32.9376 36.9527 32.8493C37.0774 32.7592 37.1727 32.631 37.2385 32.4647C37.306 32.2967 37.3398 32.0958 37.3398 31.862C37.3398 31.6282 37.3069 31.4255 37.2411 31.254C37.1753 31.0808 37.08 30.9466 36.9553 30.8513C36.8306 30.7561 36.679 30.7085 36.5006 30.7085C36.3188 30.7085 36.1655 30.7578 36.0408 30.8565C35.9161 30.9535 35.8217 31.0886 35.7576 31.2618C35.6935 31.435 35.6614 31.6351 35.6614 31.862C35.6614 32.0924 35.6935 32.2915 35.7576 32.4595C35.8234 32.6258 35.9178 32.7549 36.0408 32.8467C36.1655 32.9367 36.3188 32.9818 36.5006 32.9818ZM41.1278 33.9482C40.7173 33.9482 40.364 33.8651 40.0678 33.6988C39.7734 33.5308 39.5465 33.2935 39.3871 32.987C39.2278 32.6787 39.1481 32.3141 39.1481 31.8932C39.1481 31.4827 39.2278 31.1224 39.3871 30.8124C39.5465 30.5023 39.7708 30.2607 40.06 30.0875C40.351 29.9143 40.6922 29.8277 41.0837 29.8277C41.3469 29.8277 41.592 29.8701 41.8189 29.955C42.0476 30.0381 42.2467 30.1637 42.4165 30.3317C42.588 30.4997 42.7213 30.711 42.8166 30.9657C42.9119 31.2185 42.9595 31.5147 42.9595 31.8542V32.1582H39.5898V31.4723H41.9177C41.9177 31.3129 41.883 31.1718 41.8137 31.0488C41.7444 30.9258 41.6483 30.8297 41.5253 30.7604C41.4041 30.6894 41.2629 30.6539 41.1019 30.6539C40.9338 30.6539 40.7849 30.6929 40.655 30.7708C40.5268 30.847 40.4263 30.9501 40.3536 31.08C40.2809 31.2081 40.2436 31.351 40.2419 31.5087V32.1608C40.2419 32.3582 40.2783 32.5288 40.351 32.6726C40.4255 32.8164 40.5303 32.9272 40.6654 33.0051C40.8005 33.0831 40.9607 33.1221 41.146 33.1221C41.269 33.1221 41.3816 33.1047 41.4838 33.0701C41.586 33.0355 41.6734 32.9835 41.7462 32.9142C41.8189 32.8449 41.8744 32.7601 41.9125 32.6596L42.9361 32.7272C42.8841 32.9731 42.7776 33.1879 42.6165 33.3715C42.4572 33.5533 42.2511 33.6954 41.9982 33.7976C41.747 33.898 41.4569 33.9482 41.1278 33.9482Z" fill="#2B2A29"/>
<path d="M0.462461 33.8703H-0.537549V34.8703H0.462461V33.8703ZM0.462461 28.5495V27.5495H-0.537549V28.5495H0.462461ZM3.98548 28.5495H4.98549V27.5495H3.98548V28.5495ZM3.98548 29.477V30.477H4.98549V29.477H3.98548ZM1.58744 29.477V28.477H0.587426V29.477H1.58744ZM1.58744 30.7448H0.587426V31.7448H1.58744V30.7448ZM3.75165 30.7448H4.75166V29.7448H3.75165V30.7448ZM3.75165 31.6723V32.6723H4.75166V31.6723H3.75165ZM1.58744 31.6723V30.6723H0.587426V31.6723H1.58744ZM1.58744 33.8703V34.8703H2.58745V33.8703H1.58744ZM1.46247 33.8703V28.5495H-0.537549V33.8703H1.46247ZM0.462461 29.5495H3.98548V27.5495H0.462461V29.5495ZM2.98547 28.5495V29.477H4.98549V28.5495H2.98547ZM3.98548 28.477H1.58744V30.477H3.98548V28.477ZM0.587426 29.477V30.7448H2.58745V29.477H0.587426ZM1.58744 31.7448H3.75165V29.7448H1.58744V31.7448ZM2.75164 30.7448V31.6723H4.75166V30.7448H2.75164ZM3.75165 30.6723H1.58744V32.6723H3.75165V30.6723ZM0.587426 31.6723V33.8703H2.58745V31.6723H0.587426ZM1.58744 32.8703H0.462461V34.8703H1.58744V32.8703ZM5.12864 33.8131L4.71661 34.7243L4.72323 34.7273L5.12864 33.8131ZM4.65579 33.4156L3.81615 33.9589L3.82246 33.9684L4.65579 33.4156ZM4.60642 32.1971L3.72659 31.7218L3.72659 31.7218L4.60642 32.1971ZM4.93898 31.8334L4.39144 30.9966L4.39144 30.9966L4.93898 31.8334ZM5.41703 31.6256L5.16574 30.6577L5.16346 30.6583L5.41703 31.6256ZM5.98341 31.5268L6.07946 32.5223L6.08732 32.5214L5.98341 31.5268ZM6.5446 31.4593L6.68941 32.4488L6.70118 32.447L6.5446 31.4593ZM6.85377 31.3606L6.29391 30.532L6.29391 30.532L6.85377 31.3606ZM6.79402 30.7708L6.13279 31.521L6.13908 31.5265L6.79402 30.7708ZM5.88209 30.7682L6.47451 31.5739L6.48209 31.5682L5.88209 30.7682ZM5.64826 31.0956L5.5673 32.0923L6.38165 32.1584L6.60883 31.3736L5.64826 31.0956ZM4.62461 31.0124L3.6468 30.8029L3.40808 31.9169L4.54366 32.0091L4.62461 31.0124ZM4.93118 30.3837L5.68836 31.0369L5.69149 31.0333L4.93118 30.3837ZM5.52095 29.9732L5.88888 30.9031L5.89234 30.9017L5.52095 29.9732ZM6.99927 29.9056L6.75089 30.8743L6.75286 30.8748L6.99927 29.9056ZM7.54227 30.1473L6.97305 30.9695L6.97726 30.9724L7.54227 30.1473ZM7.91899 30.5682L7.03736 31.0401L7.03938 31.0439L7.91899 30.5682ZM8.05669 33.8703V34.8703H9.0567V33.8703H8.05669ZM7.00706 33.8703H6.00705V34.8703H7.00706V33.8703ZM7.00706 33.3169H8.00707V32.3169H7.00706V33.3169ZM6.97588 33.3169V32.3169H6.36545L6.08644 32.8598L6.97588 33.3169ZM6.71867 33.6469L7.37549 34.401L7.38229 34.3949L6.71867 33.6469ZM6.33156 33.8677L6.65757 34.8131L6.66721 34.8097L6.33156 33.8677ZM6.55759 33.0857L7.01469 33.9752L7.02435 33.9701L6.55759 33.0857ZM6.85117 32.8207L6.00913 32.2813L6.00913 32.2813L6.85117 32.8207ZM6.9577 32.0205H7.95771V30.1778L6.4127 31.182L6.9577 32.0205ZM6.8148 32.0828L7.09697 33.0422L7.10583 33.0396L7.11463 33.0368L6.8148 32.0828ZM6.61475 32.1322L6.79766 33.1153L6.80866 33.1133L6.81961 33.111L6.61475 32.1322ZM6.39131 32.1712L6.52951 33.1616L6.54077 33.16L6.55199 33.1582L6.39131 32.1712ZM6.18866 32.1997L6.04724 31.2098L6.04355 31.2103L6.18866 32.1997ZM5.84831 32.2907L6.24223 33.2098L6.24223 33.2098L5.84831 32.2907ZM5.62228 32.4595L6.41275 33.0722L6.41994 33.0627L5.62228 32.4595ZM5.70542 33.0649L5.11571 33.8725L5.12293 33.8778L5.13023 33.8829L5.70542 33.0649ZM5.80934 32.9456C5.67107 32.9456 5.58587 32.922 5.53404 32.899L4.72323 34.7273C5.06978 34.881 5.43838 34.9456 5.80934 34.9456V32.9456ZM5.54065 32.902C5.50537 32.886 5.49679 32.8744 5.48911 32.8628L3.82246 33.9684C4.04688 34.3067 4.35354 34.5601 4.71662 34.7243L5.54065 32.902ZM5.49536 32.8724C5.50076 32.8807 5.49889 32.8814 5.49505 32.8667C5.49086 32.8506 5.48432 32.8156 5.48432 32.7557H3.4843C3.4843 33.1634 3.57369 33.5841 3.81621 33.9589L5.49536 32.8724ZM5.48432 32.7557C5.48432 32.6525 5.50356 32.6404 5.48625 32.6724L3.72659 31.7218C3.54647 32.0553 3.4843 32.4155 3.4843 32.7557H5.48432ZM5.48625 32.6724C5.48811 32.669 5.48928 32.6673 5.48954 32.6669C5.48979 32.6666 5.4895 32.667 5.48865 32.668C5.4878 32.6689 5.4869 32.6697 5.48617 32.6704C5.48544 32.671 5.48543 32.6709 5.48651 32.6702L4.39144 30.9966C4.10897 31.1815 3.88523 31.4282 3.72659 31.7218L5.48625 32.6724ZM5.48651 32.6702C5.52794 32.6431 5.5862 32.615 5.6706 32.5929L5.16346 30.6583C4.89105 30.7297 4.63061 30.8401 4.39144 30.9966L5.48651 32.6702ZM5.66831 32.5935C5.79429 32.5608 5.93098 32.5365 6.07946 32.5222L5.88737 30.5315C5.64093 30.5552 5.40003 30.5968 5.16574 30.6577L5.66831 32.5935ZM6.08732 32.5214C6.32579 32.4965 6.52807 32.4724 6.6894 32.4488L6.3998 30.4698C6.27707 30.4878 6.10522 30.5087 5.8795 30.5323L6.08732 32.5214ZM6.70118 32.447C6.88436 32.4179 7.16433 32.3576 7.41364 32.1892L6.29391 30.532C6.33147 30.5066 6.363 30.4906 6.38353 30.4812C6.40431 30.4717 6.4187 30.4669 6.42422 30.4651C6.43366 30.4621 6.42422 30.4659 6.38802 30.4716L6.70118 32.447ZM7.41364 32.1892C7.78305 31.9396 7.94991 31.5473 7.94991 31.1683H5.94989C5.94989 31.084 5.96633 30.963 6.03143 30.8328C6.09836 30.699 6.19516 30.5987 6.29391 30.532L7.41364 32.1892ZM7.94991 31.1683V31.1527H5.94989V31.1683H7.94991ZM7.94991 31.1527C7.94991 30.7607 7.81523 30.3326 7.44895 30.0151L6.13908 31.5265C6.07233 31.4686 6.01848 31.3936 5.98507 31.3117C5.95347 31.2343 5.94989 31.1751 5.94989 31.1527H7.94991ZM7.45522 30.0206C7.11043 29.7167 6.69582 29.6357 6.35754 29.6357V31.6357C6.39684 31.6357 6.27322 31.6448 6.13281 31.521L7.45522 30.0206ZM6.35754 29.6357C6.01742 29.6357 5.6249 29.7111 5.28208 29.9682L6.48209 31.5682C6.37483 31.6486 6.29928 31.6357 6.35754 31.6357V29.6357ZM5.28969 29.9626C5.00707 30.1704 4.79128 30.4596 4.68768 30.8175L6.60883 31.3736C6.59714 31.414 6.57725 31.4567 6.54903 31.4962C6.52126 31.5351 6.49312 31.5602 6.47448 31.5739L5.28969 29.9626ZM5.72921 30.0988L4.70556 30.0157L4.54366 32.0091L5.5673 32.0923L5.72921 30.0988ZM5.60242 31.222C5.6215 31.1329 5.65243 31.0786 5.68835 31.0369L4.17402 29.7305C3.90509 30.0422 3.73164 30.407 3.6468 30.8029L5.60242 31.222ZM5.69149 31.0333C5.72731 30.9913 5.78383 30.9446 5.88888 30.9031L5.15302 29.0433C4.77655 29.1923 4.4399 29.4192 4.17088 29.7341L5.69149 31.0333ZM5.89234 30.9017C5.99382 30.8611 6.14403 30.8277 6.36273 30.8277V28.8277C5.94404 28.8277 5.53306 28.8913 5.14956 29.0447L5.89234 30.9017ZM6.36273 30.8277C6.50565 30.8277 6.63408 30.8444 6.75089 30.8743L7.24764 28.937C6.95914 28.863 6.66323 28.8277 6.36273 28.8277V30.8277ZM6.75286 30.8748C6.85329 30.9003 6.92276 30.9346 6.97305 30.9695L8.11148 29.3251C7.84654 29.1417 7.55401 29.0149 7.24567 28.9365L6.75286 30.8748ZM6.97726 30.9724C7.00331 30.9902 7.02071 31.009 7.03737 31.0401L8.80061 30.0962C8.63368 29.7844 8.39993 29.5226 8.10728 29.3222L6.97726 30.9724ZM7.03938 31.0439C7.03599 31.0376 7.05668 31.0698 7.05668 31.1787H9.0567C9.0567 30.813 8.98559 30.4382 8.79861 30.0925L7.03938 31.0439ZM7.05668 31.1787V33.8703H9.0567V31.1787H7.05668ZM8.05669 32.8703H7.00706V34.8703H8.05669V32.8703ZM8.00707 33.8703V33.3169H6.00705V33.8703H8.00707ZM7.00706 32.3169H6.97588V34.3169H7.00706V32.3169ZM6.08644 32.8598C6.08032 32.8718 6.07205 32.8837 6.05505 32.8988L7.38229 34.3949C7.58007 34.2195 7.74327 34.0115 7.86532 33.774L6.08644 32.8598ZM6.06188 32.8928C6.05977 32.8946 6.0432 32.9089 5.9959 32.9257L6.66721 34.8097C6.92129 34.7192 7.1628 34.5862 7.37546 34.4009L6.06188 32.8928ZM6.00556 32.9223C5.98137 32.9307 5.9213 32.9456 5.80934 32.9456V34.9456C6.09229 34.9456 6.38036 34.9087 6.65755 34.8131L6.00556 32.9223ZM6.12631 34.1818C6.42243 34.1818 6.72736 34.1228 7.01466 33.9751L6.10052 32.1963C6.11772 32.1874 6.13156 32.1833 6.13868 32.1817C6.14526 32.1803 6.14212 32.1818 6.12631 32.1818V34.1818ZM7.02435 33.9701C7.29063 33.8295 7.52239 33.6268 7.69322 33.3601L6.00913 32.2813C6.02173 32.2616 6.03738 32.2432 6.05446 32.2278C6.07126 32.2126 6.08486 32.2044 6.09083 32.2013L7.02435 33.9701ZM7.69322 33.3601C7.87425 33.0775 7.95771 32.7623 7.95771 32.444H5.95769C5.95769 32.429 5.9597 32.4034 5.96879 32.3713C5.978 32.3387 5.99212 32.3078 6.00913 32.2813L7.69322 33.3601ZM7.95771 32.444V32.0205H5.95769V32.444H7.95771ZM6.4127 31.182C6.45148 31.1568 6.48168 31.1427 6.49604 31.1364C6.51114 31.1298 6.51844 31.1277 6.51497 31.1288L7.11463 33.0368C7.22069 33.0035 7.36271 32.9499 7.50269 32.8589L6.4127 31.182ZM6.53263 31.1235C6.50441 31.1318 6.46422 31.142 6.40988 31.1534L6.81961 33.111C6.91424 33.0912 7.00741 33.0685 7.09697 33.0422L6.53263 31.1235ZM6.43184 31.1491C6.36473 31.1615 6.29766 31.1732 6.23063 31.1842L6.55199 33.1582C6.63392 33.1448 6.71581 33.1305 6.79766 33.1153L6.43184 31.1491ZM6.25311 31.1808C6.17779 31.1913 6.10914 31.2009 6.04724 31.2098L6.33008 33.1897C6.38942 33.1812 6.45587 33.1718 6.52951 33.1616L6.25311 31.1808ZM6.04355 31.2103C5.84791 31.239 5.6475 31.2888 5.45439 31.3715L6.24223 33.2098C6.24205 33.2099 6.24878 33.207 6.26427 33.2029C6.27976 33.1987 6.30254 33.1937 6.33378 33.1892L6.04355 31.2103ZM5.45439 31.3715C5.22735 31.4688 5.00105 31.6231 4.82461 31.8564L6.41994 33.0627C6.35089 33.154 6.27528 33.1957 6.24223 33.2098L5.45439 31.3715ZM4.83185 31.847C4.61829 32.1225 4.54173 32.4363 4.54173 32.7194H6.54175C6.54175 32.7945 6.51887 32.9351 6.4127 33.0721L4.83185 31.847ZM4.54173 32.7194C4.54173 33.1468 4.71622 33.5808 5.11571 33.8725L6.29512 32.2573C6.36689 32.3097 6.43798 32.3885 6.4864 32.4907C6.53304 32.5891 6.54175 32.6734 6.54175 32.7194H4.54173ZM5.13023 33.8829C5.4478 34.1062 5.80304 34.1818 6.12631 34.1818V32.1818C6.11732 32.1818 6.13141 32.1807 6.16142 32.1891C6.19312 32.1979 6.23583 32.2154 6.2806 32.2469L5.13023 33.8829ZM12.2357 31.0176L12.2971 32.0157L13.3675 31.9499L13.2271 30.8867L12.2357 31.0176ZM11.2225 31.08L10.2419 31.2761L10.413 32.1317L11.2839 32.0781L11.2225 31.08ZM11.1108 30.8461L10.3317 31.4732L10.3394 31.4825L11.1108 30.8461ZM10.8847 30.6773L10.4581 31.5817L10.4683 31.5865L10.4786 31.5911L10.8847 30.6773ZM10.1209 30.7214L10.6373 31.5779L10.6464 31.5722L10.1209 30.7214ZM10.0585 31.2488L9.4049 32.0057L9.4049 32.0057L10.0585 31.2488ZM10.4508 31.4073L10.2407 32.3851L10.2534 32.3876L10.4508 31.4073ZM11.1731 31.5528L11.3743 30.5733L11.3706 30.5725L11.1731 31.5528ZM12.0409 31.9373L11.3609 32.6706L11.3609 32.6706L12.0409 31.9373ZM12.0954 33.3221L11.3072 32.7067L11.3038 32.7111L12.0954 33.3221ZM11.4667 33.7846L11.8474 34.7092L11.8505 34.708L11.4667 33.7846ZM9.28689 33.6183L8.70735 34.4333L8.71251 34.4369L9.28689 33.6183ZM8.73869 32.7142L8.68626 31.7155L7.59615 31.7728L7.74846 32.8537L8.73869 32.7142ZM9.82729 32.657L10.8071 32.4568L10.6347 31.6132L9.77486 31.6584L9.82729 32.657ZM10.0663 33.0259L9.50896 33.8563L9.51691 33.8615L10.0663 33.0259ZM11.0198 33.0389L11.5543 33.8841L11.5575 33.8821L11.0198 33.0389ZM11.2017 32.7453L12.2016 32.7598L12.2018 32.744L12.2015 32.7281L11.2017 32.7453ZM11.0744 32.4985L10.4536 33.2826L10.4639 33.2905L11.0744 32.4985ZM10.6899 32.3478L10.886 31.3673L10.8853 31.3671L10.6899 32.3478ZM9.99877 32.2101L9.80265 33.1907L9.80336 33.1909L9.99877 32.2101ZM9.12841 31.8048L8.41488 32.5055L8.4181 32.5087L9.12841 31.8048ZM9.05306 30.4071L8.25573 29.8035L8.25216 29.8083L9.05306 30.4071ZM9.64283 29.9784L9.2758 29.0482L9.27363 29.049L9.64283 29.9784ZM11.7265 30.1473L11.1335 30.9524L11.1358 30.9541L11.7265 30.1473ZM12.1743 30.0195L11.161 30.0819L11.2839 32.0781L12.2971 32.0157L12.1743 30.0195ZM12.2031 30.8839C12.1528 30.6327 12.0424 30.404 11.8821 30.2098L10.3394 31.4825C10.2934 31.4268 10.2575 31.3541 10.2419 31.2761L12.2031 30.8839ZM11.8898 30.2191C11.7212 30.0097 11.5117 29.8616 11.2909 29.7635L10.4786 31.5911C10.4448 31.5761 10.386 31.5406 10.3317 31.4732L11.8898 30.2191ZM11.3113 29.7728C11.0558 29.6523 10.7928 29.6123 10.5548 29.6123V31.6123C10.573 31.6123 10.53 31.6156 10.4581 31.5817L11.3113 29.7728ZM10.5548 29.6123C10.2418 29.6123 9.90486 29.6795 9.59538 29.8706L10.6464 31.5722C10.6116 31.5937 10.581 31.6045 10.5616 31.6094C10.5433 31.614 10.5393 31.6123 10.5548 31.6123V29.6123ZM9.60453 29.8651C9.24029 30.0847 8.9442 30.4788 8.9442 31.0072H10.9442C10.9442 31.1202 10.9138 31.2509 10.839 31.372C10.7679 31.4869 10.6839 31.5497 10.6372 31.5778L9.60453 29.8651ZM8.9442 31.0072C8.9442 31.4115 9.12301 31.7622 9.4049 32.0057L10.7121 30.492C10.7658 30.5383 10.8289 30.6103 10.8767 30.7114C10.9252 30.814 10.9442 30.9174 10.9442 31.0072H8.9442ZM9.4049 32.0057C9.67693 32.2406 10.0124 32.3359 10.2407 32.385L10.661 30.4297C10.6351 30.4241 10.6162 30.4192 10.6034 30.4154C10.5904 30.4116 10.5859 30.4097 10.5883 30.4106C10.5905 30.4115 10.6032 30.4167 10.6232 30.4282C10.643 30.4396 10.6749 30.4598 10.7121 30.492L9.4049 32.0057ZM10.2534 32.3876L10.9756 32.5331L11.3706 30.5725L10.6483 30.427L10.2534 32.3876ZM10.9719 32.5324C11.1125 32.5612 11.2107 32.5941 11.2759 32.623C11.3408 32.6517 11.3621 32.6717 11.3609 32.6706L12.7208 31.2041C12.3435 30.8542 11.8546 30.6719 11.3743 30.5733L10.9719 32.5324ZM11.3609 32.6706C11.3586 32.6685 11.353 32.6628 11.3463 32.6532C11.3396 32.6436 11.3341 32.6333 11.3301 32.6236C11.3216 32.6029 11.3266 32.6012 11.3266 32.6336H13.3267C13.3267 32.1007 13.1384 31.5913 12.7208 31.2041L11.3609 32.6706ZM11.3266 32.6336C11.3266 32.6648 11.3223 32.6793 11.3209 32.6835C11.3196 32.6872 11.317 32.6941 11.3072 32.7067L12.8837 33.9375C13.1814 33.5561 13.3267 33.1076 13.3267 32.6336H11.3266ZM11.3038 32.7111C11.2736 32.7502 11.2145 32.8064 11.0829 32.8611L11.8505 34.708C12.2523 34.541 12.6124 34.2889 12.887 33.9332L11.3038 32.7111ZM11.0859 32.8599C10.9641 32.9101 10.792 32.9482 10.5496 32.9482V34.9482C11 34.9482 11.4393 34.8773 11.8474 34.7092L11.0859 32.8599ZM10.5496 32.9482C10.1509 32.9482 9.95352 32.8644 9.86127 32.7997L8.71251 34.4369C9.24726 34.8121 9.89166 34.9482 10.5496 34.9482V32.9482ZM9.86642 32.8033C9.77999 32.7419 9.74454 32.6855 9.72892 32.5746L7.74846 32.8537C7.84023 33.5049 8.17024 34.0513 8.70736 34.4332L9.86642 32.8033ZM8.79113 33.7128L9.87973 33.6556L9.77486 31.6584L8.68626 31.7155L8.79113 33.7128ZM8.84752 32.8572C8.9284 33.253 9.14602 33.6126 9.50899 33.8562L10.6236 32.1956C10.6683 32.2256 10.7143 32.2697 10.751 32.3263C10.7868 32.3816 10.8016 32.4299 10.8071 32.4568L8.84752 32.8572ZM9.51691 33.8615C9.84946 34.0801 10.2181 34.1506 10.5522 34.1506V32.1506C10.5226 32.1506 10.5179 32.1474 10.5312 32.1509C10.546 32.1547 10.5776 32.1653 10.6157 32.1904L9.51691 33.8615ZM10.5522 34.1506C10.8641 34.1506 11.2255 34.092 11.5543 33.8841L10.4854 32.1937C10.5323 32.1641 10.5689 32.1533 10.5822 32.1501C10.5943 32.1472 10.5867 32.1506 10.5522 32.1506V34.1506ZM11.5575 33.8821C11.8997 33.6639 12.194 33.2821 12.2016 32.7598L10.2018 32.7308C10.2034 32.6167 10.236 32.4929 10.3048 32.3818C10.3697 32.277 10.444 32.2201 10.4821 32.1958L11.5575 33.8821ZM12.2015 32.7281C12.1943 32.3082 11.9964 31.9466 11.6849 31.7065L10.4639 33.2905C10.4049 33.2451 10.3342 33.1722 10.2798 33.0667C10.2247 32.9599 10.2034 32.8526 10.2018 32.7626L12.2015 32.7281ZM11.6951 31.7145C11.4315 31.5058 11.1235 31.4148 10.886 31.3673L10.4937 33.3284C10.515 33.3327 10.5302 33.3365 10.5403 33.3393C10.5504 33.3421 10.5535 33.3435 10.551 33.3425C10.5486 33.3416 10.5383 33.3374 10.5222 33.3286C10.5062 33.3198 10.4821 33.3051 10.4537 33.2826L11.6951 31.7145ZM10.8853 31.3671L10.1942 31.2294L9.80336 33.1909L10.4945 33.3286L10.8853 31.3671ZM10.1949 31.2296C9.91375 31.1733 9.83783 31.1 9.83871 31.1009L8.4181 32.5087C8.80004 32.8941 9.30436 33.0911 9.80265 33.1907L10.1949 31.2296ZM9.84192 31.1042C9.84024 31.1025 9.8415 31.1035 9.84391 31.1072C9.84635 31.111 9.84818 31.1148 9.8492 31.1174C9.85016 31.1199 9.84932 31.1186 9.84815 31.1118C9.84693 31.1049 9.84522 31.0912 9.84522 31.0696H7.8452C7.8452 31.5993 8.0223 32.1057 8.41489 32.5055L9.84192 31.1042ZM9.84522 31.0696C9.84522 31.0321 9.85016 31.0148 9.85133 31.011C9.85217 31.0084 9.85232 31.0081 9.85397 31.0059L8.25216 29.8083C7.97039 30.1851 7.8452 30.6219 7.8452 31.0696H9.84522ZM9.85038 31.0106C9.86279 30.9943 9.89958 30.9524 10.012 30.9077L9.27363 29.049C8.88031 29.2053 8.52393 29.4492 8.25574 29.8035L9.85038 31.0106ZM10.0099 30.9086C10.1227 30.8641 10.2911 30.8277 10.5366 30.8277V28.8277C10.0996 28.8277 9.67219 28.8918 9.2758 29.0482L10.0099 30.9086ZM10.5366 30.8277C10.9109 30.8277 11.073 30.9079 11.1335 30.9524L12.3195 29.3421C11.8015 28.9605 11.1703 28.8277 10.5366 28.8277V30.8277ZM11.1358 30.9541C11.1999 31.0011 11.2305 31.0437 11.2443 31.1486L13.2271 30.8867C13.144 30.2572 12.835 29.7195 12.3172 29.3404L11.1358 30.9541ZM15.1462 29.8797H16.1462V28.8797H15.1462V29.8797ZM15.1462 30.711V31.711H16.1462V30.711H15.1462ZM12.743 30.711H11.743V31.711H12.743V30.711ZM12.743 29.8797V28.8797H11.743V29.8797H12.743ZM13.2886 28.9236V27.9236H12.2886V28.9236H13.2886ZM14.3954 28.9236H15.3954V27.9236H14.3954V28.9236ZM14.4422 32.883L13.5642 33.3619L13.5706 33.3733L14.4422 32.883ZM14.5721 32.9999L14.1957 33.9265L14.2055 33.9304L14.5721 32.9999ZM14.9254 33.0207L15.0898 34.0071L15.1057 34.0045L15.1215 34.0013L14.9254 33.0207ZM15.0449 32.9973L16.0233 32.7906L15.8212 31.8344L14.8606 32.0145L15.0449 32.9973ZM15.219 33.8209L15.5173 34.7754L16.3855 34.5041L16.1974 33.6141L15.219 33.8209ZM14.9852 33.8807L14.7664 32.9049L14.7585 32.9067L14.7505 32.9086L14.9852 33.8807ZM14.6188 33.9249L14.5827 32.9255L14.5799 32.9256L14.6188 33.9249ZM13.9173 33.8183L13.539 34.744L13.5418 34.7452L13.9173 33.8183ZM13.4523 33.439L14.2921 32.8961L14.2921 32.8961L13.4523 33.439ZM13.2886 32.7895L14.2886 32.7961V32.7895H13.2886ZM14.1462 29.8797V30.711H16.1462V29.8797H14.1462ZM15.1462 29.711H12.743V31.711H15.1462V29.711ZM13.743 30.711V29.8797H11.743V30.711H13.743ZM12.743 30.8797H15.1462V28.8797H12.743V30.8797ZM13.2886 29.9236H14.3954V27.9236H13.2886V29.9236ZM13.3954 28.9236V32.644H15.3954V28.9236H13.3954ZM13.3954 32.644C13.3954 32.8273 13.4199 33.0972 13.5643 33.3619L15.3201 32.4042C15.3638 32.4843 15.3813 32.5516 15.3885 32.5884C15.3958 32.6256 15.3954 32.6464 15.3954 32.644H13.3954ZM13.5706 33.3733C13.7052 33.6126 13.9168 33.8131 14.1957 33.9264L14.9484 32.0735C15.1164 32.1417 15.2415 32.2643 15.3137 32.3928L13.5706 33.3733ZM14.2055 33.9304C14.4013 34.0075 14.5955 34.0337 14.7695 34.0337V32.0337C14.7946 32.0337 14.8571 32.0374 14.9386 32.0695L14.2055 33.9304ZM14.7695 34.0337C14.8773 34.0337 14.9843 34.0247 15.0898 34.0071L14.761 32.0343C14.7626 32.0341 14.7656 32.0337 14.7695 32.0337V34.0337ZM15.1215 34.0013C15.1723 33.9912 15.2075 33.9843 15.2292 33.9802L14.8606 32.0145C14.8269 32.0208 14.7824 32.0295 14.7293 32.0402L15.1215 34.0013ZM14.0665 33.2041L14.2406 34.0277L16.1974 33.6141L16.0233 32.7906L14.0665 33.2041ZM14.9207 32.8665C14.9041 32.8716 14.8571 32.8846 14.7664 32.9049L15.2039 34.8565C15.3141 34.8318 15.423 34.8049 15.5173 34.7754L14.9207 32.8665ZM14.7505 32.9086C14.7349 32.9124 14.6835 32.9219 14.5827 32.9255L14.6549 34.9242C14.8417 34.9175 15.0345 34.8975 15.2198 34.8528L14.7505 32.9086ZM14.5799 32.9256C14.4229 32.9317 14.3356 32.9088 14.2929 32.8915L13.5418 34.7452C13.9009 34.8907 14.2813 34.9388 14.6578 34.9241L14.5799 32.9256ZM14.2957 32.8927C14.2878 32.8895 14.2837 32.8871 14.2823 32.8864C14.2811 32.8856 14.2818 32.8859 14.2838 32.8875C14.2857 32.8892 14.2879 32.8912 14.2898 32.8933C14.2917 32.8955 14.2924 32.8966 14.2921 32.8961L12.6125 33.9819C12.8406 34.3347 13.1613 34.5896 13.539 34.744L14.2957 32.8927ZM14.2921 32.8961C14.3013 32.9103 14.301 32.9159 14.2979 32.9037C14.2945 32.8901 14.2882 32.8563 14.2886 32.7961L12.2886 32.7829C12.286 33.185 12.3698 33.6065 12.6125 33.9819L14.2921 32.8961ZM14.2886 32.7895V28.9236H12.2886V32.7895H14.2886ZM22.2761 30.4123V31.4123H23.401L23.2692 30.2951L22.2761 30.4123ZM21.1381 30.4123L20.1479 30.5521L20.2693 31.4123H21.1381V30.4123ZM21.0108 30.02L20.1354 30.5034L20.1385 30.509L21.0108 30.02ZM20.764 29.7238L20.1344 30.5007L20.1344 30.5007L20.764 29.7238ZM20.4158 29.5367L20.0996 30.4854L20.1033 30.4866L20.4158 29.5367ZM19.2727 29.677L19.8241 30.5113L19.829 30.508L19.2727 29.677ZM18.7972 30.2694L19.7138 30.6692L19.7148 30.667L18.7972 30.2694ZM18.7972 32.166L17.8806 32.5658L17.8829 32.571L18.7972 32.166ZM19.2753 32.7505L18.7338 33.5912L18.7338 33.5912L19.2753 32.7505ZM20.4028 32.8882L20.1096 31.9322L20.106 31.9333L20.4028 32.8882ZM20.7484 32.7142L21.3528 33.5109L21.3614 33.5042L20.7484 32.7142ZM20.9978 32.431L20.1438 31.9106L20.1379 31.9204L20.9978 32.431ZM21.1381 32.0517L21.1427 31.0517L20.3051 31.0478L20.1544 31.8717L21.1381 32.0517ZM22.2761 32.0568L23.2689 32.1765L23.4033 31.062L22.2806 31.0569L22.2761 32.0568ZM22.0552 32.7635L21.1677 32.3028L21.1663 32.3054L22.0552 32.7635ZM21.585 33.3689L22.255 34.1112L22.2554 34.1109L21.585 33.3689ZM20.8835 33.7898L21.2372 34.7251L21.2405 34.7239L20.8835 33.7898ZM18.6933 33.6209L18.1937 34.4871L18.1954 34.4881L18.6933 33.6209ZM17.8099 32.6882L16.9255 33.1549L16.9271 33.1578L17.8099 32.6882ZM17.8151 29.729L18.6965 30.2015L18.6965 30.2015L17.8151 29.729ZM18.7037 28.7989L19.1985 29.6679L19.2016 29.6661L18.7037 28.7989ZM20.8237 28.6066L20.5112 29.5565L20.5131 29.5571L20.8237 28.6066ZM21.5278 28.9859L20.8967 29.7617L20.9007 29.7649L21.5278 28.9859ZM22.0266 29.5913L21.1453 30.0639L21.148 30.0688L22.0266 29.5913ZM22.2761 29.4123H21.1381V31.4123H22.2761V29.4123ZM22.1283 30.2725C22.0925 30.0189 22.0154 29.7669 21.8831 29.531L20.1385 30.509C20.1344 30.5016 20.1421 30.5112 20.1479 30.5521L22.1283 30.2725ZM21.8862 29.5365C21.7614 29.3106 21.5966 29.1114 21.3936 28.9468L20.1344 30.5007C20.1345 30.5008 20.1343 30.5007 20.1339 30.5002C20.1334 30.4998 20.1331 30.4994 20.1328 30.4991C20.1321 30.4982 20.1331 30.4991 20.1354 30.5034L21.8862 29.5365ZM21.3936 28.9469C21.1922 28.7837 20.9669 28.6653 20.7283 28.5868L20.1033 30.4866C20.1165 30.491 20.1243 30.4947 20.1283 30.4969C20.1321 30.4989 20.1338 30.5002 20.1344 30.5007L21.3936 28.9469ZM20.7321 28.588C20.4893 28.5071 20.2402 28.4718 19.9923 28.4718V30.4718C20.0493 30.4718 20.0825 30.4797 20.0996 30.4854L20.7321 28.588ZM19.9923 28.4718C19.5434 28.4718 19.1046 28.5861 18.7163 28.8461L19.829 30.508C19.8495 30.4943 19.8904 30.4718 19.9923 30.4718V28.4718ZM18.7212 28.8428C18.331 29.1007 18.057 29.4624 17.8796 29.8718L19.7148 30.667C19.7625 30.5568 19.8055 30.5235 19.8241 30.5112L18.7212 28.8428ZM17.8806 29.8695C17.6988 30.2863 17.6283 30.7441 17.6283 31.2099H19.6283C19.6283 30.9378 19.6705 30.7686 19.7138 30.6692L17.8806 29.8695ZM17.6283 31.2099C17.6283 31.6817 17.6975 32.146 17.8806 32.5658L19.7138 31.7661C19.6718 31.6698 19.6283 31.4967 19.6283 31.2099H17.6283ZM17.8829 32.571C18.0632 32.9781 18.3401 33.3377 18.7338 33.5912L19.8167 31.9098C19.8016 31.9001 19.7598 31.87 19.7115 31.761L17.8829 32.571ZM18.7338 33.5912C19.1162 33.8376 19.5448 33.948 19.9845 33.948V31.948C19.8873 31.948 19.8431 31.9268 19.8167 31.9098L18.7338 33.5912ZM19.9845 33.948C20.2237 33.948 20.4644 33.9163 20.6996 33.8432L20.106 31.9333C20.0849 31.9398 20.0468 31.948 19.9845 31.948V33.948ZM20.696 33.8443C20.9295 33.7727 21.1517 33.6634 21.3528 33.5109L20.144 31.9175C20.1433 31.918 20.1413 31.9195 20.1367 31.9218C20.1321 31.9241 20.1235 31.9279 20.1096 31.9322L20.696 33.8443ZM21.3614 33.5042C21.5623 33.3483 21.7287 33.1587 21.8577 32.9415L20.1379 31.9204C20.136 31.9238 20.1351 31.9245 20.1356 31.924C20.1362 31.9234 20.1364 31.9233 20.1354 31.9241L21.3614 33.5042ZM21.8517 32.9513C21.9898 32.7248 22.0762 32.4806 22.1218 32.2316L20.1544 31.8717C20.1511 31.8898 20.1476 31.9008 20.1456 31.9061C20.1437 31.9113 20.1429 31.9122 20.1438 31.9106L21.8517 32.9513ZM21.1335 33.0516L22.2715 33.0568L22.2806 31.0569L21.1427 31.0517L21.1335 33.0516ZM21.2832 31.9371C21.2687 32.0577 21.2324 32.1781 21.1677 32.3028L22.9428 33.2242C23.1136 32.8951 23.2245 32.5445 23.2689 32.1765L21.2832 31.9371ZM21.1663 32.3054C21.1082 32.4182 21.0273 32.5251 20.9146 32.6269L22.2554 34.1109C22.5376 33.8559 22.7702 33.5592 22.9441 33.2216L21.1663 32.3054ZM20.9149 32.6266C20.8199 32.7123 20.6951 32.7912 20.5265 32.8557L21.2405 34.7239C21.6157 34.5805 21.9586 34.3788 22.255 34.1112L20.9149 32.6266ZM20.5297 32.8544C20.391 32.9069 20.2081 32.943 19.9664 32.943V34.943C20.407 34.943 20.8355 34.877 21.2372 34.7251L20.5297 32.8544ZM19.9664 32.943C19.6485 32.943 19.3989 32.8729 19.1912 32.7536L18.1954 34.4881C18.7359 34.7984 19.335 34.943 19.9664 34.943V32.943ZM19.1929 32.7546C18.9948 32.6404 18.8279 32.4726 18.6928 32.2186L16.9271 33.1578C17.225 33.7179 17.647 34.1719 18.1937 34.4871L19.1929 32.7546ZM18.6944 32.2215C18.5725 31.9906 18.4878 31.6667 18.4878 31.2099H16.4878C16.4878 31.9101 16.6178 32.5717 16.9255 33.1549L18.6944 32.2215ZM18.4878 31.2099C18.4878 30.7531 18.5736 30.4306 18.6965 30.2015L16.9338 29.2564C16.6202 29.8414 16.4878 30.5062 16.4878 31.2099H18.4878ZM18.6965 30.2015C18.8325 29.9478 18.9999 29.7809 19.1985 29.6679L18.2088 27.9299C17.6592 28.2429 17.2343 28.6961 16.9338 29.2564L18.6965 30.2015ZM19.2016 29.6661C19.4116 29.5456 19.6583 29.4767 19.9664 29.4767V27.4767C19.3391 27.4767 18.7441 27.6226 18.2058 27.9316L19.2016 29.6661ZM19.9664 29.4767C20.1803 29.4767 20.3595 29.5066 20.5112 29.5565L21.1362 27.6567C20.7614 27.5334 20.369 27.4767 19.9664 27.4767V29.4767ZM20.5131 29.5571C20.6683 29.6079 20.793 29.6772 20.8967 29.7616L22.1589 28.2102C21.8539 27.9621 21.5092 27.7786 21.1344 27.6561L20.5131 29.5571ZM20.9007 29.7649C20.9971 29.8425 21.0783 29.9389 21.1453 30.0639L22.9079 29.1187C22.7186 28.7656 22.4672 28.4584 22.1549 28.207L20.9007 29.7649ZM21.148 30.0688C21.2092 30.1814 21.2594 30.3298 21.2829 30.5294L23.2692 30.2951C23.22 29.8782 23.1039 29.4792 22.9053 29.1138L21.148 30.0688ZM24.1688 31.5632L23.1688 31.5531V31.5632H24.1688ZM24.1688 33.8703V34.8703H25.1688V33.8703H24.1688ZM23.062 33.8703H22.062V34.8703H23.062V33.8703ZM23.062 28.5495V27.5495H22.062V28.5495H23.062ZM24.1376 28.5495H25.1376V27.5495H24.1376V28.5495ZM24.1376 30.5837H23.1376V31.5837H24.1376V30.5837ZM24.1844 30.5837V31.5837H24.8726L25.1184 30.9409L24.1844 30.5837ZM24.6208 30.0304L25.1739 30.8635L25.1788 30.8602L24.6208 30.0304ZM26.1018 30.0096L25.5947 30.8715L25.6033 30.8765L26.1018 30.0096ZM26.585 30.5266L25.6933 30.9793L25.6975 30.9875L26.585 30.5266ZM26.7565 31.3294L25.7565 31.3238V31.3294H26.7565ZM26.7565 33.8703V34.8703H27.7565V33.8703H26.7565ZM25.6497 33.8703H24.6497V34.8703H25.6497V33.8703ZM25.6497 31.5268L24.6497 31.5198V31.5268H25.6497ZM25.4626 30.9527L24.7235 31.6263L24.7282 31.6313L25.4626 30.9527ZM24.5377 30.8436L24.0543 29.9681L24.0487 29.9713L24.5377 30.8436ZM24.2675 31.1241L23.3858 30.6523L23.3834 30.6568L24.2675 31.1241ZM23.1688 31.5632V33.8703H25.1688V31.5632H23.1688ZM24.1688 32.8703H23.062V34.8703H24.1688V32.8703ZM24.062 33.8703V28.5495H22.062V33.8703H24.062ZM23.062 29.5495H24.1376V27.5495H23.062V29.5495ZM23.1376 28.5495V30.5837H25.1376V28.5495H23.1376ZM24.1376 31.5837H24.1844V29.5837H24.1376V31.5837ZM25.1184 30.9409C25.1378 30.8903 25.1547 30.8763 25.1739 30.8635L24.0678 29.1972C23.6852 29.4512 23.4111 29.8061 23.2503 30.2266L25.1184 30.9409ZM25.1788 30.8602C25.1809 30.8588 25.1917 30.8517 25.2194 30.8443C25.2487 30.8364 25.299 30.8277 25.3769 30.8277V28.8277C24.9252 28.8277 24.4659 28.9295 24.0628 29.2005L25.1788 30.8602ZM25.3769 30.8277C25.5044 30.8277 25.5653 30.8542 25.5947 30.8715L26.6088 29.1476C26.226 28.9225 25.8036 28.8277 25.3769 28.8277V30.8277ZM25.6033 30.8765C25.6334 30.8938 25.6621 30.9178 25.6933 30.9793L27.4767 30.0739C27.2793 29.6851 26.9858 29.3644 26.6002 29.1427L25.6033 30.8765ZM25.6975 30.9875C25.723 31.0365 25.7575 31.1363 25.7565 31.3238L27.7565 31.3349C27.7589 30.8989 27.6791 30.4635 27.4725 30.0657L25.6975 30.9875ZM25.7565 31.3294V33.8703H27.7565V31.3294H25.7565ZM26.7565 32.8703H25.6497V34.8703H26.7565V32.8703ZM26.6497 33.8703V31.5268H24.6497V33.8703H26.6497ZM26.6497 31.5339C26.6526 31.1174 26.5453 30.6508 26.1971 30.274L24.7282 31.6313C24.6858 31.5855 24.6632 31.5388 24.6534 31.5086C24.6448 31.4822 24.65 31.4814 24.6497 31.5198L26.6497 31.5339ZM26.2017 30.2791C25.8473 29.8902 25.3785 29.7474 24.9378 29.7474V31.7474C24.9499 31.7474 24.9228 31.7493 24.8737 31.73C24.8202 31.7091 24.7662 31.6731 24.7235 31.6263L26.2017 30.2791ZM24.9378 29.7474C24.6415 29.7474 24.3376 29.8117 24.0543 29.9682L25.0211 31.7189C24.9979 31.7318 24.9759 31.7396 24.9584 31.7438C24.9415 31.7478 24.9335 31.7474 24.9378 31.7474V29.7474ZM24.0487 29.9713C23.7571 30.1347 23.5356 30.3724 23.3858 30.6523L25.1492 31.596C25.1419 31.6095 25.128 31.6313 25.1047 31.6554C25.0812 31.6799 25.0542 31.7004 25.0267 31.7158L24.0487 29.9713ZM23.3834 30.6568C23.2284 30.95 23.1718 31.2613 23.1688 31.5531L25.1687 31.5733C25.169 31.5482 25.1714 31.5397 25.1704 31.5442C25.1692 31.5493 25.1646 31.5669 25.1516 31.5914L23.3834 30.6568ZM28.0848 33.8131L27.6727 34.7243L27.6793 34.7273L28.0848 33.8131ZM27.6119 33.4156L26.7723 33.9589L26.7786 33.9684L27.6119 33.4156ZM27.5625 32.1971L26.6827 31.7218L26.6827 31.7218L27.5625 32.1971ZM27.8951 31.8334L27.3476 30.9966L27.3476 30.9966L27.8951 31.8334ZM28.3731 31.6256L28.1219 30.6577L28.1196 30.6583L28.3731 31.6256ZM28.9395 31.5268L29.0356 32.5223L29.0434 32.5214L28.9395 31.5268ZM29.5007 31.4593L29.6455 32.4488L29.6573 32.447L29.5007 31.4593ZM29.8099 31.3606L29.25 30.532L29.25 30.532L29.8099 31.3606ZM29.7501 30.7708L29.0889 31.521L29.0952 31.5265L29.7501 30.7708ZM28.8382 30.7682L29.4306 31.5739L29.4382 31.5682L28.8382 30.7682ZM28.6044 31.0956L28.5234 32.0923L29.3378 32.1584L29.5649 31.3736L28.6044 31.0956ZM27.5807 31.0124L26.6029 30.8029L26.3642 31.9169L27.4998 32.0091L27.5807 31.0124ZM27.8873 30.3837L28.6445 31.0369L28.6476 31.0333L27.8873 30.3837ZM28.4771 29.9732L28.845 30.9031L28.8485 30.9017L28.4771 29.9732ZM29.9554 29.9056L29.707 30.8743L29.709 30.8748L29.9554 29.9056ZM30.4984 30.1473L29.9292 30.9695L29.9334 30.9724L30.4984 30.1473ZM30.8751 30.5682L29.9935 31.0401L29.9955 31.0439L30.8751 30.5682ZM31.0128 33.8703V34.8703H32.0128V33.8703H31.0128ZM29.9632 33.8703H28.9632V34.8703H29.9632V33.8703ZM29.9632 33.3169H30.9632V32.3169H29.9632V33.3169ZM29.932 33.3169V32.3169H29.3216L29.0426 32.8598L29.932 33.3169ZM29.6748 33.6469L30.3316 34.401L30.3384 34.3949L29.6748 33.6469ZM29.2877 33.8677L29.6137 34.8131L29.6233 34.8097L29.2877 33.8677ZM29.5137 33.0857L29.9708 33.9752L29.9805 33.9701L29.5137 33.0857ZM29.8073 32.8207L28.9652 32.2813L28.9652 32.2813L29.8073 32.8207ZM29.9138 32.0205H30.9138V30.1778L29.3688 31.182L29.9138 32.0205ZM29.7709 32.0828L30.0531 33.0422L30.0619 33.0396L30.0707 33.0368L29.7709 32.0828ZM29.5709 32.1322L29.7538 33.1153L29.7648 33.1133L29.7757 33.111L29.5709 32.1322ZM29.3474 32.1712L29.4856 33.1616L29.4969 33.16L29.5081 33.1582L29.3474 32.1712ZM29.1448 32.1997L29.0033 31.2098L28.9997 31.2103L29.1448 32.1997ZM28.8044 32.2907L29.1983 33.2098L29.1983 33.2098L28.8044 32.2907ZM28.5784 32.4595L29.3689 33.0722L29.3761 33.0627L28.5784 32.4595ZM28.6615 33.0649L28.0718 33.8725L28.079 33.8778L28.0863 33.8829L28.6615 33.0649ZM28.7655 32.9456C28.6272 32.9456 28.542 32.922 28.4902 32.899L27.6793 34.7273C28.0259 34.881 28.3945 34.9456 28.7655 34.9456V32.9456ZM28.4968 32.902C28.4615 32.886 28.4529 32.8744 28.4452 32.8628L26.7786 33.9684C27.003 34.3067 27.3096 34.5601 27.6727 34.7243L28.4968 32.902ZM28.4515 32.8724C28.4569 32.8807 28.455 32.8814 28.4512 32.8667C28.447 32.8506 28.4404 32.8156 28.4404 32.7557H26.4404C26.4404 33.1634 26.5298 33.5841 26.7723 33.9589L28.4515 32.8724ZM28.4404 32.7557C28.4404 32.6525 28.4597 32.6404 28.4424 32.6724L26.6827 31.7218C26.5026 32.0553 26.4404 32.4155 26.4404 32.7557H28.4404ZM28.4424 32.6724C28.4442 32.669 28.4454 32.6673 28.4457 32.6669C28.4459 32.6666 28.4456 32.667 28.4448 32.668C28.4439 32.6689 28.443 32.6697 28.4423 32.6704C28.4416 32.671 28.4415 32.6709 28.4426 32.6702L27.3476 30.9966C27.0651 31.1815 26.8413 31.4282 26.6827 31.7218L28.4424 32.6724ZM28.4426 32.6702C28.4841 32.6431 28.5423 32.615 28.6267 32.5929L28.1196 30.6583C27.8472 30.7297 27.5867 30.8401 27.3476 30.9966L28.4426 32.6702ZM28.6244 32.5935C28.7504 32.5608 28.8871 32.5365 29.0356 32.5222L28.8435 30.5315C28.597 30.5552 28.3561 30.5968 28.1219 30.6577L28.6244 32.5935ZM29.0434 32.5214C29.2819 32.4965 29.4842 32.4724 29.6455 32.4488L29.3559 30.4698C29.2332 30.4878 29.0613 30.5087 28.8356 30.5323L29.0434 32.5214ZM29.6573 32.447C29.8405 32.4179 30.1204 32.3576 30.3697 32.1892L29.25 30.532C29.2876 30.5066 29.3191 30.4906 29.3396 30.4812C29.3604 30.4717 29.3748 30.4669 29.3803 30.4651C29.3898 30.4621 29.3803 30.4659 29.3441 30.4716L29.6573 32.447ZM30.3697 32.1892C30.7392 31.9396 30.906 31.5473 30.906 31.1683H28.906C28.906 31.084 28.9224 30.963 28.9875 30.8328C29.0545 30.699 29.1513 30.5987 29.25 30.532L30.3697 32.1892ZM30.906 31.1683V31.1527H28.906V31.1683H30.906ZM30.906 31.1527C30.906 30.7607 30.7713 30.3326 30.4051 30.0151L29.0952 31.5265C29.0284 31.4686 28.9746 31.3936 28.9412 31.3117C28.9096 31.2343 28.906 31.1751 28.906 31.1527H30.906ZM30.4113 30.0206C30.0665 29.7167 29.6519 29.6357 29.3136 29.6357V31.6357C29.353 31.6357 29.2293 31.6448 29.0889 31.521L30.4113 30.0206ZM29.3136 29.6357C28.9735 29.6357 28.581 29.7111 28.2382 29.9682L29.4382 31.5682C29.3309 31.6486 29.2554 31.6357 29.3136 31.6357V29.6357ZM28.2458 29.9626C27.9632 30.1704 27.7474 30.4596 27.6438 30.8175L29.5649 31.3736C29.5532 31.414 29.5334 31.4567 29.5051 31.4962C29.4774 31.5351 29.4492 31.5602 29.4306 31.5739L28.2458 29.9626ZM28.6853 30.0988L27.6617 30.0157L27.4998 32.0091L28.5234 32.0923L28.6853 30.0988ZM28.5585 31.222C28.5776 31.1329 28.6085 31.0786 28.6445 31.0369L27.1301 29.7305C26.8612 30.0422 26.6877 30.407 26.6029 30.8029L28.5585 31.222ZM28.6476 31.0333C28.6834 30.9913 28.7399 30.9446 28.845 30.9031L28.1091 29.0433C27.7327 29.1923 27.396 29.4192 27.127 29.7341L28.6476 31.0333ZM28.8485 30.9017C28.9499 30.8611 29.1001 30.8277 29.3188 30.8277V28.8277C28.9002 28.8277 28.4892 28.8913 28.1057 29.0447L28.8485 30.9017ZM29.3188 30.8277C29.4618 30.8277 29.5902 30.8444 29.707 30.8743L30.2038 28.937C29.9153 28.863 29.6193 28.8277 29.3188 28.8277V30.8277ZM29.709 30.8748C29.8094 30.9003 29.8789 30.9346 29.9292 30.9695L31.0676 29.3251C30.8027 29.1417 30.5101 29.0149 30.2018 28.9365L29.709 30.8748ZM29.9334 30.9724C29.9594 30.9902 29.9768 31.009 29.9935 31.0401L31.7567 30.0962C31.5898 29.7844 31.356 29.5226 31.0634 29.3222L29.9334 30.9724ZM29.9955 31.0439C29.9921 31.0376 30.0128 31.0698 30.0128 31.1787H32.0128C32.0128 30.813 31.9417 30.4382 31.7547 30.0925L29.9955 31.0439ZM30.0128 31.1787V33.8703H32.0128V31.1787H30.0128ZM31.0128 32.8703H29.9632V34.8703H31.0128V32.8703ZM30.9632 33.8703V33.3169H28.9632V33.8703H30.9632ZM29.9632 32.3169H29.932V34.3169H29.9632V32.3169ZM29.0426 32.8598C29.0364 32.8718 29.0282 32.8837 29.0112 32.8988L30.3384 34.3949C30.5362 34.2195 30.6994 34.0115 30.8214 33.774L29.0426 32.8598ZM29.018 32.8928C29.0159 32.8946 28.9993 32.9089 28.952 32.9257L29.6233 34.8097C29.8774 34.7192 30.1189 34.5862 30.3316 34.4009L29.018 32.8928ZM28.9617 32.9223C28.9375 32.9307 28.8774 32.9456 28.7655 32.9456V34.9456C29.0484 34.9456 29.3365 34.9087 29.6137 34.8131L28.9617 32.9223ZM29.0824 34.1818C29.3785 34.1818 29.6835 34.1228 29.9708 33.9751L29.0566 32.1963C29.0738 32.1874 29.0877 32.1833 29.0948 32.1817C29.1014 32.1803 29.0982 32.1818 29.0824 32.1818V34.1818ZM29.9805 33.9701C30.2467 33.8295 30.4785 33.6268 30.6493 33.3601L28.9652 32.2813C28.9778 32.2616 28.9935 32.2432 29.0106 32.2278C29.0274 32.2126 29.041 32.2044 29.0469 32.2013L29.9805 33.9701ZM30.6493 33.3601C30.8304 33.0775 30.9138 32.7623 30.9138 32.444H28.9138C28.9138 32.429 28.9158 32.4034 28.9249 32.3713C28.9341 32.3387 28.9482 32.3078 28.9652 32.2813L30.6493 33.3601ZM30.9138 32.444V32.0205H28.9138V32.444H30.9138ZM29.3688 31.182C29.4076 31.1568 29.4378 31.1427 29.4522 31.1364C29.4673 31.1298 29.4746 31.1277 29.4711 31.1288L30.0707 33.0368C30.1768 33.0035 30.3188 32.9499 30.4588 32.8589L29.3688 31.182ZM29.4887 31.1235C29.4605 31.1318 29.4203 31.142 29.366 31.1534L29.7757 33.111C29.8703 33.0912 29.9635 33.0685 30.0531 33.0422L29.4887 31.1235ZM29.388 31.1491C29.3208 31.1615 29.2538 31.1732 29.1867 31.1842L29.5081 33.1582C29.59 33.1448 29.6719 33.1305 29.7538 33.1153L29.388 31.1491ZM29.2092 31.1808C29.1339 31.1913 29.0653 31.2009 29.0034 31.2098L29.2862 33.1897C29.3455 33.1812 29.412 33.1718 29.4856 33.1616L29.2092 31.1808ZM28.9997 31.2103C28.804 31.239 28.6036 31.2888 28.4105 31.3715L29.1983 33.2098C29.1982 33.2099 29.2049 33.207 29.2204 33.2029C29.2359 33.1987 29.2586 33.1937 29.2899 33.1892L28.9997 31.2103ZM28.4105 31.3715C28.1835 31.4688 27.9572 31.6231 27.7807 31.8564L29.3761 33.0627C29.307 33.154 29.2314 33.1957 29.1983 33.2098L28.4105 31.3715ZM27.788 31.847C27.5744 32.1225 27.4978 32.4363 27.4978 32.7194H29.4979C29.4979 32.7945 29.475 32.9351 29.3688 33.0721L27.788 31.847ZM27.4978 32.7194C27.4978 33.1468 27.6723 33.5808 28.0718 33.8725L29.2512 32.2573C29.323 32.3097 29.3941 32.3885 29.4425 32.4907C29.4891 32.5891 29.4979 32.6734 29.4979 32.7194H27.4978ZM28.0863 33.8829C28.4039 34.1062 28.7592 34.1818 29.0824 34.1818V32.1818C29.0734 32.1818 29.0875 32.1807 29.1175 32.1891C29.1492 32.1979 29.1919 32.2154 29.2367 32.2469L28.0863 33.8829ZM31.8715 33.8703H30.8715V34.8703H31.8715V33.8703ZM31.8715 29.8797V28.8797H30.8715V29.8797H31.8715ZM32.9445 29.8797H33.9445V28.8797H32.9445V29.8797ZM32.9445 30.5759H31.9445V31.5759H32.9445V30.5759ZM32.9861 30.5759V31.5759H33.7346L33.9455 30.8578L32.9861 30.5759ZM33.3524 30.0148L33.9459 30.8196L33.9511 30.8157L33.3524 30.0148ZM34.124 29.8329L34.2315 28.8387L34.2315 28.8387L34.124 29.8329ZM34.2929 29.8615H35.2929V29.0807L34.5354 28.8913L34.2929 29.8615ZM34.2929 30.8436L34.0055 31.8014L35.2929 32.1876V30.8436H34.2929ZM33.3888 30.8903L33.8693 31.7673L33.8734 31.765L33.3888 30.8903ZM33.0874 31.1813L32.2288 30.6685L32.2236 30.6774L33.0874 31.1813ZM32.9783 33.8703V34.8703H33.9783V33.8703H32.9783ZM32.8715 33.8703V29.8797H30.8715V33.8703H32.8715ZM31.8715 30.8797H32.9445V28.8797H31.8715V30.8797ZM31.9445 29.8797V30.5759H33.9445V29.8797H31.9445ZM32.9445 31.5759H32.9861V29.5759H32.9445V31.5759ZM33.9455 30.8578C33.9586 30.8134 33.9695 30.7966 33.9696 30.7965C33.9696 30.7965 33.9676 30.7996 33.963 30.8045C33.9583 30.8095 33.9525 30.8147 33.9459 30.8196L32.7589 29.2099C32.3768 29.4916 32.1475 29.8824 32.0266 30.2941L33.9455 30.8578ZM33.9511 30.8157C33.9521 30.815 33.951 30.8159 33.948 30.8175C33.945 30.8191 33.9414 30.8206 33.9378 30.8217C33.9342 30.8229 33.9323 30.8232 33.9326 30.8231C33.933 30.8231 33.9368 30.8225 33.9448 30.8225V28.8225C33.5156 28.8225 33.1059 28.9505 32.7537 29.2138L33.9511 30.8157ZM33.9448 30.8225C33.9591 30.8225 33.9826 30.8234 34.0165 30.8271L34.2315 28.8387C34.1373 28.8285 34.0413 28.8225 33.9448 28.8225V30.8225ZM34.0165 30.8271C34.0312 30.8287 34.0413 30.8302 34.0474 30.8312C34.0537 30.8323 34.0543 30.8326 34.0504 30.8316L34.5354 28.8913C34.432 28.8655 34.3288 28.8492 34.2315 28.8387L34.0165 30.8271ZM33.2929 29.8615V30.8436H35.2929V29.8615H33.2929ZM34.5802 29.8857C34.4538 29.8478 34.3215 29.8256 34.2082 29.8106L33.9463 31.7934C33.9775 31.7975 33.9984 31.801 34.0107 31.8034C34.0242 31.806 34.0207 31.8059 34.0055 31.8014L34.5802 29.8857ZM34.2082 29.8106C34.0818 29.7939 33.9534 29.7838 33.8252 29.7838V31.7838C33.8495 31.7838 33.8891 31.7858 33.9463 31.7934L34.2082 29.8106ZM33.8252 29.7838C33.5121 29.7838 33.1966 29.8536 32.9041 30.0156L33.8734 31.765C33.8579 31.7736 33.8429 31.779 33.8311 31.7819C33.8198 31.7847 33.8168 31.7838 33.8252 31.7838V29.7838ZM32.9082 30.0133C32.6244 30.1689 32.3939 30.3921 32.2288 30.6686L33.9459 31.694C33.9397 31.7045 33.929 31.7192 33.9132 31.7344C33.8973 31.7497 33.8816 31.7606 33.8693 31.7673L32.9082 30.0133ZM32.2236 30.6774C32.0507 30.9738 31.9783 31.2958 31.9783 31.6126H33.9783C33.9783 31.6059 33.979 31.6122 33.975 31.6279C33.9709 31.6443 33.9632 31.6645 33.9512 31.6852L32.2236 30.6774ZM31.9783 31.6126V33.8703H33.9783V31.6126H31.9783ZM32.9783 32.8703H31.8715V34.8703H32.9783V32.8703ZM35.5549 35.3018L35.9143 34.3686L35.9109 34.3673L35.5549 35.3018ZM34.947 34.9043L34.2025 35.572L34.2025 35.572L34.947 34.9043ZM34.6534 34.338L34.5201 33.3469L33.4486 33.491L33.6757 34.548L34.6534 34.338ZM35.677 34.2003L36.6083 33.8359L36.3221 33.1045L35.5437 33.2092L35.677 34.2003ZM35.8251 34.4237L36.5411 33.7256L36.5411 33.7256L35.8251 34.4237ZM36.0927 34.59L36.4517 33.6566L36.4439 33.6536L36.0927 34.59ZM37.0982 34.4782L36.5052 33.6729L36.4953 33.6804L37.0982 34.4782ZM37.3346 33.1636H38.3346V32.1636H37.3346V33.1636ZM37.2878 33.1636V32.1636H36.6338L36.3717 32.7628L37.2878 33.1636ZM37.0696 33.478L37.783 34.1788L37.783 34.1788L37.0696 33.478ZM35.3315 33.6053L34.8333 34.4724L34.8406 34.4765L35.3315 33.6053ZM34.7469 32.9636L33.8514 33.4087L33.8546 33.4151L34.7469 32.9636ZM34.7521 30.7344L33.8526 30.2975L33.8526 30.2975L34.7521 30.7344ZM35.3393 30.0537L34.8168 29.201L34.8142 29.2027L35.3393 30.0537ZM36.7085 29.942L36.2571 30.8344L36.2654 30.8385L36.7085 29.942ZM37.0722 30.2226L36.2972 30.8546L36.3025 30.8611L36.3079 30.8675L37.0722 30.2226ZM37.2878 30.55L36.382 30.9737L36.6516 31.55H37.2878V30.55ZM37.3294 30.55V31.55H38.3294V30.55H37.3294ZM37.3294 29.8797V28.8797H36.3294V29.8797H37.3294ZM38.4284 29.8797H39.4284V28.8797H38.4284V29.8797ZM38.179 34.7614L37.3703 34.1733L37.3703 34.1733L38.179 34.7614ZM37.4879 35.2759L37.126 34.3436L37.1194 34.3462L37.4879 35.2759ZM36.9527 32.8493L37.5361 33.6614L37.5382 33.6599L36.9527 32.8493ZM37.2385 32.4647L36.3106 32.0917L36.3087 32.0967L37.2385 32.4647ZM37.2411 31.254L36.3063 31.6093L36.3075 31.6124L37.2411 31.254ZM36.0408 30.8565L36.6547 31.6459L36.6615 31.6406L36.0408 30.8565ZM35.7576 31.2618L36.6954 31.6088L36.6954 31.6088L35.7576 31.2618ZM35.7576 32.4595L34.8232 32.816L34.8278 32.8276L35.7576 32.4595ZM36.0408 32.8467L35.4426 33.648L35.4489 33.6527L35.4553 33.6573L36.0408 32.8467ZM36.4772 34.4499C36.206 34.4499 36.0269 34.412 35.9143 34.3687L35.1955 36.235C35.5956 36.3891 36.0314 36.4499 36.4772 36.4499V34.4499ZM35.9109 34.3673C35.7746 34.3154 35.7159 34.2639 35.6914 34.2366L34.2025 35.572C34.4795 35.8808 34.826 36.0942 35.1989 36.2363L35.9109 34.3673ZM35.6914 34.2366C35.6506 34.1911 35.6376 34.1581 35.6311 34.1279L33.6757 34.548C33.7593 34.937 33.9419 35.2815 34.2025 35.572L35.6914 34.2366ZM34.7867 35.329L35.8103 35.1913L35.5437 33.2092L34.5201 33.3469L34.7867 35.329ZM34.7458 34.5647C34.8317 34.7841 34.9604 34.9693 35.1091 35.1218L36.5411 33.7256C36.5547 33.7395 36.5848 33.7757 36.6083 33.8359L34.7458 34.5647ZM35.1091 35.1218C35.2996 35.3172 35.5232 35.4444 35.7416 35.5263L36.4439 33.6536C36.4405 33.6524 36.4857 33.6688 36.5411 33.7256L35.1091 35.1218ZM35.7337 35.5233C35.9922 35.6227 36.2582 35.6549 36.5032 35.6549V33.6549C36.4668 33.6549 36.4453 33.6524 36.4361 33.651C36.427 33.6495 36.4337 33.6497 36.4517 33.6566L35.7337 35.5233ZM36.5032 35.6549C36.91 35.6549 37.3344 35.5531 37.701 35.2761L36.4953 33.6804C36.5061 33.6723 36.5169 33.6657 36.527 33.6607C36.5369 33.6557 36.5443 33.6532 36.5479 33.6521C36.5548 33.6501 36.5426 33.6549 36.5032 33.6549V35.6549ZM37.6911 35.2835C38.197 34.9111 38.3346 34.3499 38.3346 33.8937H36.3346C36.3346 33.9389 36.3275 33.9219 36.3484 33.8701C36.3731 33.8091 36.424 33.7328 36.5053 33.673L37.6911 35.2835ZM38.3346 33.8937V33.1636H36.3346V33.8937H38.3346ZM37.3346 32.1636H37.2878V34.1636H37.3346V32.1636ZM36.3717 32.7628C36.3748 32.7557 36.3768 32.7531 36.3754 32.7551C36.3739 32.7572 36.3684 32.7648 36.3563 32.7772L37.783 34.1788C37.9531 34.0056 38.1002 33.8016 38.204 33.5644L36.3717 32.7628ZM36.3563 32.7772C36.3707 32.7625 36.3671 32.7735 36.3168 32.7941L37.0741 34.6452C37.3288 34.541 37.5745 34.391 37.783 34.1788L36.3563 32.7772ZM36.3168 32.7941C36.3134 32.7955 36.2665 32.8131 36.1499 32.8131V34.8131C36.4559 34.8131 36.7728 34.7684 37.0741 34.6452L36.3168 32.7941ZM36.1499 32.8131C36.0113 32.8131 35.9092 32.783 35.8223 32.734L34.8406 34.4765C35.2457 34.7047 35.6892 34.8131 36.1499 34.8131V32.8131ZM35.8296 32.7382C35.7779 32.7085 35.7097 32.6514 35.6392 32.5121L33.8546 33.4151C34.0751 33.8508 34.3966 34.2215 34.8334 34.4724L35.8296 32.7382ZM35.6424 32.5185C35.5879 32.4087 35.5313 32.2082 35.5313 31.8672H33.5313C33.5313 32.4096 33.6184 32.9399 33.8514 33.4086L35.6424 32.5185ZM35.5313 31.8672C35.5313 31.5173 35.5891 31.3 35.6516 31.1713L33.8526 30.2975C33.6207 30.775 33.5313 31.313 33.5313 31.8672H35.5313ZM35.6516 31.1713C35.7306 31.0088 35.8082 30.9395 35.8644 30.9048L34.8142 29.2027C34.3819 29.4694 34.0681 29.8539 33.8526 30.2975L35.6516 31.1713ZM35.8617 30.9064C35.948 30.8536 36.0361 30.8277 36.1473 30.8277V28.8277C35.6731 28.8277 35.2225 28.9525 34.8169 29.2011L35.8617 30.9064ZM36.1473 30.8277C36.2625 30.8277 36.2841 30.848 36.2572 30.8344L37.1598 29.0497C36.8314 28.8836 36.4789 28.8277 36.1473 28.8277V30.8277ZM36.2654 30.8385C36.2872 30.8493 36.2981 30.8571 36.3016 30.8598C36.3048 30.8623 36.3023 30.8608 36.2972 30.8546L37.8472 29.5907C37.6519 29.3511 37.4105 29.1735 37.1516 29.0455L36.2654 30.8385ZM36.3079 30.8675C36.3569 30.9255 36.3762 30.9613 36.382 30.9737L38.1937 30.1263C38.099 29.9239 37.9746 29.7414 37.8365 29.5777L36.3079 30.8675ZM37.2878 31.55H37.3294V29.55H37.2878V31.55ZM38.3294 30.55V29.8797H36.3294V30.55H38.3294ZM37.3294 30.8797H38.4284V28.8797H37.3294V30.8797ZM37.4284 29.8797V33.9093H39.4284V29.8797H37.4284ZM37.4284 33.9093C37.4284 34.0809 37.3889 34.1477 37.3703 34.1733L38.9877 35.3496C39.3017 34.918 39.4284 34.4166 39.4284 33.9093H37.4284ZM37.3703 34.1733C37.3298 34.2289 37.2632 34.2904 37.126 34.3436L37.8498 36.2081C38.3015 36.0327 38.6957 35.7512 38.9877 35.3496L37.3703 34.1733ZM37.1194 34.3462C36.9658 34.4071 36.7579 34.4499 36.4772 34.4499V36.4499C36.9587 36.4499 37.4246 36.3767 37.8564 36.2055L37.1194 34.3462ZM36.5006 33.9818C36.85 33.9818 37.2144 33.8925 37.5361 33.6614L36.3693 32.0371C36.4028 32.013 36.4373 31.9975 36.4662 31.989C36.4936 31.981 36.5073 31.9818 36.5006 31.9818V33.9818ZM37.5382 33.6599C37.8413 33.441 38.0439 33.147 38.1683 32.8328L36.3087 32.0967C36.3042 32.108 36.3047 32.1031 36.3151 32.0891C36.3261 32.0742 36.3435 32.0557 36.3672 32.0386L37.5382 33.6599ZM38.1663 32.8378C38.2932 32.5222 38.3398 32.1881 38.3398 31.862H36.3398C36.3398 32.0035 36.3189 32.0713 36.3107 32.0917L38.1663 32.8378ZM38.3398 31.862C38.3398 31.5377 38.2946 31.208 38.1747 30.8957L36.3075 31.6124C36.3192 31.643 36.3398 31.7187 36.3398 31.862H38.3398ZM38.1759 30.8988C38.056 30.5833 37.86 30.2841 37.5623 30.0567L36.3482 31.646C36.3268 31.6296 36.3125 31.6131 36.3048 31.6022C36.2976 31.5921 36.2998 31.5922 36.3063 31.6093L38.1759 30.8988ZM37.5623 30.0567C37.2398 29.8103 36.867 29.7085 36.5006 29.7085V31.7085C36.5007 31.7085 36.4958 31.7085 36.4865 31.7071C36.4772 31.7058 36.4641 31.7031 36.4483 31.6982C36.4145 31.6876 36.3794 31.6698 36.3482 31.646L37.5623 30.0567ZM36.5006 29.7085C36.1274 29.7085 35.7463 29.8142 35.4201 30.0725L36.6615 31.6406C36.6288 31.6665 36.5916 31.6858 36.5558 31.6973C36.5215 31.7084 36.5005 31.7085 36.5006 31.7085V29.7085ZM35.4268 30.0672C35.1317 30.2967 34.9373 30.5969 34.8197 30.9148L36.6954 31.6088C36.7014 31.5928 36.7033 31.5932 36.6962 31.6034C36.6885 31.6143 36.6748 31.6303 36.6547 31.6459L35.4268 30.0672ZM34.8197 30.9148C34.7063 31.2212 34.6614 31.5428 34.6614 31.862H36.6615C36.6615 31.7274 36.6806 31.6488 36.6954 31.6088L34.8197 30.9148ZM34.6614 31.862C34.6614 32.1815 34.7054 32.5071 34.8232 32.8159L36.6919 32.1032C36.6815 32.0759 36.6615 32.0032 36.6615 31.862H34.6614ZM34.8278 32.8276C34.9503 33.1373 35.1479 33.4281 35.4426 33.648L36.639 32.0453C36.6605 32.0614 36.6758 32.0782 36.6848 32.0906C36.6934 32.1023 36.6927 32.1048 36.6874 32.0915L34.8278 32.8276ZM35.4553 33.6573C35.7798 33.8917 36.148 33.9818 36.5006 33.9818V31.9818C36.4922 31.9818 36.5046 31.9807 36.5311 31.9885C36.5592 31.9968 36.5931 32.012 36.6263 32.036L35.4553 33.6573ZM40.0678 33.6988L39.5722 34.5674L39.5783 34.5708L40.0678 33.6988ZM39.3871 32.987L38.4987 33.4461L38.4998 33.4482L39.3871 32.987ZM39.3871 30.8124L38.4977 30.3553L38.4977 30.3553L39.3871 30.8124ZM40.06 30.0875L39.5485 29.2282L39.5463 29.2296L40.06 30.0875ZM41.8189 29.955L41.4686 30.8917L41.4772 30.8948L41.8189 29.955ZM42.4165 30.3317L41.713 31.0425L41.7166 31.046L42.4165 30.3317ZM42.8166 30.9657L41.88 31.3161L41.8808 31.3182L42.8166 30.9657ZM42.9595 32.1582V33.1582H43.9595V32.1582H42.9595ZM39.5898 32.1582H38.5897V33.1582H39.5898V32.1582ZM39.5898 31.4723V30.4723H38.5897V31.4723H39.5898ZM41.9177 31.4723V32.4723H42.9177V31.4723H41.9177ZM41.8137 31.0488L40.9425 31.5396L40.9425 31.5396L41.8137 31.0488ZM41.5253 30.7604L41.0199 31.6233L41.0272 31.6275L41.0345 31.6317L41.5253 30.7604ZM40.655 30.7708L41.1661 31.6303L41.1695 31.6283L40.655 30.7708ZM40.3536 31.08L41.2233 31.5736L41.2261 31.5686L40.3536 31.08ZM40.2419 31.5087L39.2419 31.4977V31.5087H40.2419ZM40.351 32.6726L39.4587 33.1241L39.4631 33.1326L40.351 32.6726ZM41.4838 33.0701L41.1627 32.123L41.1627 32.123L41.4838 33.0701ZM41.7462 32.9142L41.0565 32.1901L41.0565 32.1901L41.7462 32.9142ZM41.9125 32.6596L41.9783 31.6618L41.2399 31.613L40.9774 32.3049L41.9125 32.6596ZM42.9361 32.7272L43.9145 32.9339L44.153 31.8053L43.002 31.7293L42.9361 32.7272ZM42.6165 33.3715L41.8648 32.712L41.8644 32.7125L42.6165 33.3715ZM41.9982 33.7976L42.3696 34.726L42.3729 34.7247L41.9982 33.7976ZM41.1278 32.9482C40.8532 32.9482 40.6758 32.8933 40.5573 32.8268L39.5783 34.5708C40.0522 34.8369 40.5815 34.9482 41.1278 34.9482V32.9482ZM40.5634 32.8303C40.4393 32.7595 40.3469 32.6652 40.2744 32.5258L38.4998 33.4482C38.746 33.9219 39.1074 34.3022 39.5722 34.5674L40.5634 32.8303ZM40.2755 32.5278C40.2035 32.3886 40.1481 32.1879 40.1481 31.8932H38.1481C38.1481 32.4402 38.252 32.9687 38.4987 33.4461L40.2755 32.5278ZM40.1481 31.8932C40.1481 31.6135 40.2017 31.415 40.2765 31.2695L38.4977 30.3553C38.2538 30.8298 38.1481 31.3518 38.1481 31.8932H40.1481ZM40.2765 31.2695C40.3536 31.1196 40.4503 31.0194 40.5738 30.9455L39.5463 29.2296C39.0912 29.5021 38.7393 29.8851 38.4977 30.3553L40.2765 31.2695ZM40.5715 30.9468C40.685 30.8793 40.8438 30.8277 41.0837 30.8277V28.8277C40.5407 28.8277 40.017 28.9494 39.5485 29.2282L40.5715 30.9468ZM41.0837 30.8277C41.2377 30.8277 41.3631 30.8522 41.4686 30.8916L42.1693 29.0184C41.821 28.8881 41.4562 28.8277 41.0837 28.8277V30.8277ZM41.4772 30.8948C41.5727 30.9295 41.6478 30.978 41.713 31.0425L43.12 29.621C42.8456 29.3495 42.5224 29.1468 42.1607 29.0152L41.4772 30.8948ZM41.7166 31.046C41.7704 31.0987 41.8292 31.1804 41.88 31.3161L43.7532 30.6152C43.6134 30.2417 43.4055 29.9007 43.1163 29.6174L41.7166 31.046ZM41.8808 31.3182C41.9243 31.4336 41.9595 31.6055 41.9595 31.8542H43.9595C43.9595 31.4239 43.8994 31.0034 43.7524 30.6131L41.8808 31.3182ZM41.9595 31.8542V32.1582H43.9595V31.8542H41.9595ZM42.9595 31.1582H39.5898V33.1582H42.9595V31.1582ZM40.5898 32.1582V31.4723H38.5897V32.1582H40.5898ZM39.5898 32.4723H41.9177V30.4723H39.5898V32.4723ZM42.9177 31.4723C42.9177 31.1635 42.8491 30.8493 42.685 30.558L40.9425 31.5396C40.9312 31.5196 40.9242 31.5003 40.9205 31.4852C40.9169 31.4707 40.9176 31.4653 40.9176 31.4723H42.9177ZM42.685 30.558C42.526 30.2758 42.2983 30.0481 42.0162 29.8892L41.0345 31.6317C41.0198 31.6234 41.0012 31.6102 40.9826 31.5916C40.9639 31.5729 40.9507 31.5543 40.9425 31.5396L42.685 30.558ZM42.0307 29.8975C41.7349 29.7242 41.4142 29.6539 41.1019 29.6539V31.6539C41.1088 31.6539 41.1017 31.6546 41.0846 31.6503C41.0667 31.6458 41.0439 31.6373 41.0199 31.6233L42.0307 29.8975ZM41.1019 29.6539C40.7729 29.6539 40.4423 29.7322 40.1405 29.9133L41.1695 31.6283C41.1516 31.639 41.1331 31.6464 41.1172 31.6506C41.1019 31.6546 41.0956 31.6539 41.1019 31.6539V29.6539ZM40.1439 29.9113C39.865 30.0771 39.6398 30.308 39.4811 30.5914L41.2261 31.5686C41.2212 31.5773 41.2125 31.59 41.1996 31.6033C41.1867 31.6165 41.1743 31.6254 41.1661 31.6303L40.1439 29.9113ZM39.4839 30.5864C39.3218 30.872 39.2454 31.1829 39.2419 31.4977L41.2418 31.5196C41.2419 31.5168 41.242 31.523 41.2388 31.5355C41.2355 31.5482 41.2301 31.5617 41.2233 31.5736L39.4839 30.5864ZM39.2419 31.5087V32.1608H41.2419V31.5087H39.2419ZM39.2419 32.1608C39.2419 32.4803 39.3009 32.8123 39.4587 33.1241L41.2433 32.2211C41.2556 32.2454 41.2419 32.2362 41.2419 32.1608H39.2419ZM39.4631 33.1326C39.622 33.4393 39.8585 33.6941 40.1656 33.8713L41.1651 32.139C41.1796 32.1473 41.1965 32.16 41.2122 32.1766C41.2276 32.193 41.2359 32.2067 41.2389 32.2126L39.4631 33.1326ZM40.1656 33.8713C40.479 34.0521 40.8184 34.1221 41.146 34.1221V32.1221C41.1233 32.1221 41.1171 32.1197 41.1232 32.1212C41.1263 32.1219 41.1319 32.1235 41.1395 32.1265C41.1471 32.1295 41.1558 32.1336 41.1651 32.139L40.1656 33.8713ZM41.146 34.1221C41.3632 34.1221 41.5859 34.0914 41.8048 34.0172L41.1627 32.123C41.1696 32.1207 41.1727 32.1204 41.1706 32.1207C41.1684 32.121 41.1606 32.1221 41.146 32.1221V34.1221ZM41.8048 34.0172C42.0342 33.9394 42.2502 33.8151 42.4358 33.6383L41.0565 32.1901C41.0966 32.1519 41.1377 32.1315 41.1627 32.123L41.8048 34.0172ZM42.4358 33.6383C42.6244 33.4587 42.76 33.2448 42.8475 33.0143L40.9774 32.3049C40.9887 32.2754 41.0134 32.2311 41.0565 32.1901L42.4358 33.6383ZM41.8466 33.6574L42.8703 33.725L43.002 31.7293L41.9783 31.6618L41.8466 33.6574ZM41.9577 32.5204C41.9401 32.6036 41.9093 32.6612 41.8648 32.712L43.3682 34.031C43.6459 33.7145 43.8282 33.3426 43.9145 32.9339L41.9577 32.5204ZM41.8644 32.7125C41.8207 32.7623 41.7501 32.8193 41.6235 32.8704L42.3729 34.7247C42.7521 34.5715 43.0937 34.3443 43.3687 34.0305L41.8644 32.7125ZM41.6268 32.8691C41.5163 32.9133 41.3565 32.9482 41.1278 32.9482V34.9482C41.5573 34.9482 41.9778 34.8828 42.3696 34.726L41.6268 32.8691Z" fill="black"/>
</svg>
