<?xml version="1.0" encoding="UTF-8"?>
<!DOCTYPE svg PUBLIC "-//W3C//DTD SVG 1.1//EN" "http://www.w3.org/Graphics/SVG/1.1/DTD/svg11.dtd">
<!-- Creator: CorelDRAW -->
<svg xmlns="http://www.w3.org/2000/svg" xml:space="preserve" width="0.442677in" height="0.369272in" version="1.1" style="shape-rendering:geometricPrecision; text-rendering:geometricPrecision; image-rendering:optimizeQuality; fill-rule:evenodd; clip-rule:evenodd"
viewBox="0 0 436.73 364.31"
 xmlns:xlink="http://www.w3.org/1999/xlink"
 xmlns:xodm="http://www.corel.com/coreldraw/odm/2003">
 <defs>
  <style type="text/css">
   <![CDATA[
    .fil0 {fill:#2B2A29}
    .fil1 {fill:#2B2A29;fill-rule:nonzero}
   ]]>
  </style>
 </defs>
 <g id="Layer_x0020_1">
  <metadata id="CorelCorpID_0Corel-Layer"/>
  <path class="fil0" d="M285.85 146.65c0,11.95 -2.05,10.76 -8.93,19.53l-45.72 54.53c-0.92,1.06 -4.82,3.9 -1.05,3.9l89.72 0c11.13,0 21.04,-4.85 21.04,-15.47l0 -144.79c0,-4.52 -3.15,-9.33 -5.9,-11.43 -3.89,-2.97 -7.39,-4.04 -13.9,-4.04l-75.49 0c-2.29,0 -2.09,2.75 -3.35,7.16l-12.02 40.6c-1.98,6.84 2.7,8.13 8.32,11.88l38.37 25.36c4,2.63 8.91,6.54 8.91,12.76l0 0z"/>
  <path class="fil0" d="M167.67 268.55c0,1.45 2.19,8.83 7.36,2.4 11.45,-14.24 24.48,-28.62 35.86,-42.72 4.29,-5.31 8.7,-10.15 12.99,-15.47l45.44 -54.18c4.09,-4.83 6.01,-5.38 6.01,-10.08 0,-4.37 -8.41,-8.49 -13.86,-12.13 -2.81,-1.88 -5.16,-3.43 -7.8,-5.2 -6.87,-4.59 -26.91,-16.75 -31.11,-21.49 -5.93,-6.69 -2.82,-14.54 -0.67,-22.04 1.24,-4.33 2.28,-7.62 3.52,-11.95l13.8 -46.84c1.86,-6.5 6.4,-19.03 6.4,-25.16 0,-1.57 -1.88,-3.71 -3.71,-3.71 -2.7,0 -22.79,24.94 -27.38,29.55 -1.59,1.59 -1.76,2.04 -3.13,3.68 -1.26,1.51 -2.4,2.29 -3.62,3.8l-73.78 83.42c-3.45,6.78 4.72,9.96 11.87,14.55 5.86,3.76 11.1,7.73 17.09,11.38 6.2,3.78 11.13,7.44 17.27,11.2 15.07,9.22 7.98,22.62 3.76,41.29 -1.79,7.93 -3.69,14.91 -5.46,23.01 -1.06,4.86 -10.87,43.45 -10.87,46.66l0 0.01z"/>
  <path class="fil0" d="M351.44 169.54c8.57,0 22.28,2.03 22.28,-4.33l0 -56.93c0,-6.36 -13.7,-4.33 -22.28,-4.33l0 65.59 0 0z"/>
  <path class="fil0" d="M62.48 195.53c0,3.01 0.14,6.81 4.95,6.81l105.19 0c0.05,-1.97 1.84,-9.83 2.48,-11.14 -4,0 -106.25,-0.62 -109.14,0.38 -1.54,0.53 -3.47,2.25 -3.47,3.95z"/>
  <path class="fil0" d="M154.06 82.3c0.69,-2.59 2.88,-3.55 4.42,-5.48 1.64,-2.04 3.64,-3.85 4.86,-5.66l-84.15 0c-4.66,0 -8.2,-0.84 -10.32,2.07 -1.91,2.63 -1.5,6.09 1.01,7.87 3.08,2.19 30.42,1.2 35.3,1.2 16.3,0 32.59,0 48.89,0l0 0z"/>
  <path class="fil0" d="M56.92 135.52c0,8.53 6.07,6.81 16.7,6.81l63.11 0c-1.32,-1.81 -5.02,-3.59 -7.18,-5.2 -1.13,-0.84 -2.3,-1.97 -3.15,-3.04 -1.07,-1.34 -1.4,-2.9 -3.29,-2.9l-60.63 0c-2.56,0 -5.57,2.08 -5.57,4.33l0.01 0z"/>
  <path class="fil0" d="M133.02 43.93c0,2.54 2.49,5.57 5.57,5.57l43.31 0c1.84,0 6.46,-6.57 7.9,-8.19 1.17,-1.31 1.65,-1.5 2.61,-2.95l-48.26 0c-2.33,0 -11.14,-1.31 -11.14,5.57l0 -0.01z"/>
  <path class="fil0" d="M178.81 175.12c0.23,-2.75 0.94,-5.03 -2.44,-7.46 -1.53,-1.1 -5.06,-3.68 -7.46,-3.68l-35.89 0c-4.95,0 -6.78,6.21 -3.81,9.37 2.65,2.81 10.42,1.77 15.57,1.77 11.35,0 22.69,0 34.03,0l0 0z"/>
  <path class="fil0" d="M122.51 228.32c0,9 5.65,6.81 18.56,6.81 7.83,0 15.68,0 23.51,0 0.31,-3.78 2.16,-7.36 2.47,-11.14 -4.28,0 -38.87,-0.9 -41.93,0.77 -1.13,0.62 -2.62,2.07 -2.62,3.56l0.01 0z"/>
  <path class="fil0" d="M84.14 169.54c0,3.06 2.51,5.57 5.57,5.57l21.65 0c8,0 6.63,-11.14 1.25,-11.14l-22.89 0c-3.06,0 -5.57,2.51 -5.57,5.57l-0.01 0z"/>
  <path class="fil0" d="M84.14 229.57c0,7.78 11.6,5.57 22.28,5.57 7.01,0 7.17,-11.14 -0.62,-11.14 -10.32,0 -21.65,-2.16 -21.65,5.57z"/>
  <path class="fil0" d="M95.28 43.32c0,8.35 8.09,6.19 21.65,6.19 7.58,0 6.82,-11.14 1.24,-11.14l-17.94 0c-3,0 -4.95,1.95 -4.95,4.95z"/>
  <path class="fil0" d="M111.37 103.96c0,7.27 9.42,5.57 16.71,5.57 1.57,0 9.96,-9.05 10.52,-11.14 -5.37,0 -10.72,0.01 -16.09,0 -5.93,-0.02 -11.14,-0.31 -11.14,5.58l0 -0.01z"/>
  <path class="fil0" d="M78.57 103.96c0,7.27 9.42,5.57 16.71,5.57 7.32,0 7.32,-11.14 0,-11.14 -7.29,0 -16.71,-1.71 -16.71,5.57z"/>
  <path class="fil1" d="M-0 348.08l0 -54.68 36.21 0 0 9.53 -24.64 0 0 13.03 22.24 0 0 9.53 -22.24 0 0 22.59 -11.56 0zm54.95 0.77c-2.61,0 -4.95,-0.45 -7,-1.36 -2.05,-0.92 -3.67,-2.29 -4.86,-4.09 -1.17,-1.81 -1.76,-4.07 -1.76,-6.78 0,-2.28 0.42,-4.19 1.25,-5.74 0.84,-1.55 1.98,-2.79 3.42,-3.74 1.44,-0.94 3.08,-1.65 4.91,-2.14 1.85,-0.48 3.79,-0.82 5.82,-1.01 2.38,-0.25 4.31,-0.48 5.77,-0.7 1.46,-0.23 2.52,-0.57 3.18,-1.01 0.66,-0.45 0.99,-1.1 0.99,-1.98l0 -0.16c0,-1.69 -0.54,-3 -1.6,-3.93 -1.05,-0.92 -2.55,-1.39 -4.49,-1.39 -2.05,0 -3.68,0.45 -4.89,1.36 -1.21,0.89 -2.01,2.01 -2.4,3.36l-10.52 -0.85c0.53,-2.49 1.58,-4.65 3.15,-6.46 1.57,-1.83 3.59,-3.24 6.06,-4.22 2.49,-1 5.38,-1.5 8.65,-1.5 2.28,0 4.46,0.27 6.54,0.8 2.1,0.54 3.96,1.36 5.58,2.49 1.64,1.12 2.93,2.56 3.87,4.32 0.94,1.74 1.41,3.84 1.41,6.28l0 27.66 -10.79 0 0 -5.69 -0.32 0c-0.66,1.28 -1.54,2.41 -2.65,3.39 -1.1,0.96 -2.43,1.72 -3.98,2.27 -1.55,0.54 -3.34,0.8 -5.37,0.8zm3.26 -7.85c1.67,0 3.15,-0.33 4.43,-0.99 1.28,-0.68 2.29,-1.58 3.02,-2.72 0.73,-1.14 1.1,-2.43 1.1,-3.87l0 -4.35c-0.36,0.23 -0.85,0.44 -1.47,0.64 -0.6,0.18 -1.29,0.35 -2.05,0.5 -0.77,0.14 -1.53,0.28 -2.3,0.4 -0.77,0.1 -1.46,0.2 -2.08,0.29 -1.34,0.2 -2.5,0.51 -3.5,0.94 -0.99,0.43 -1.77,1.01 -2.32,1.73 -0.55,0.71 -0.83,1.6 -0.83,2.67 0,1.55 0.56,2.73 1.68,3.55 1.14,0.8 2.58,1.2 4.33,1.2zm62.78 -22.24l-10.41 0.64c-0.18,-0.89 -0.56,-1.69 -1.15,-2.4 -0.59,-0.73 -1.36,-1.31 -2.32,-1.74 -0.94,-0.45 -2.07,-0.67 -3.39,-0.67 -1.76,0 -3.25,0.37 -4.46,1.12 -1.21,0.73 -1.82,1.71 -1.82,2.94 0,0.98 0.39,1.81 1.18,2.48 0.78,0.68 2.12,1.22 4.03,1.63l7.42 1.5c3.99,0.82 6.96,2.14 8.92,3.95 1.96,1.81 2.94,4.2 2.94,7.15 0,2.69 -0.79,5.05 -2.38,7.08 -1.57,2.03 -3.72,3.61 -6.46,4.75 -2.73,1.12 -5.87,1.68 -9.43,1.68 -5.43,0 -9.75,-1.13 -12.98,-3.39 -3.2,-2.28 -5.08,-5.38 -5.63,-9.29l11.19 -0.59c0.34,1.65 1.16,2.92 2.45,3.79 1.3,0.85 2.96,1.28 5,1.28 1.99,0 3.6,-0.38 4.8,-1.15 1.23,-0.78 1.85,-1.79 1.87,-3.01 -0.02,-1.03 -0.45,-1.88 -1.31,-2.54 -0.85,-0.68 -2.17,-1.19 -3.95,-1.55l-7.1 -1.41c-4,-0.8 -6.99,-2.19 -8.95,-4.17 -1.94,-1.97 -2.91,-4.49 -2.91,-7.55 0,-2.63 0.71,-4.91 2.14,-6.81 1.44,-1.9 3.46,-3.37 6.06,-4.4 2.62,-1.03 5.68,-1.55 9.19,-1.55 5.18,0 9.26,1.1 12.23,3.29 2.99,2.19 4.73,5.17 5.23,8.94zm29.91 -11.69l0 8.54 -24.7 0 0 -8.54 24.7 0zm-19.09 -9.83l11.37 0 0 38.24c0,1.05 0.16,1.87 0.48,2.45 0.32,0.57 0.77,0.97 1.34,1.2 0.59,0.23 1.26,0.35 2.03,0.35 0.54,0 1.07,-0.05 1.6,-0.14 0.53,-0.1 0.94,-0.19 1.23,-0.24l1.79 8.46c-0.57,0.18 -1.37,0.38 -2.4,0.62 -1.03,0.25 -2.29,0.4 -3.76,0.45 -2.74,0.1 -5.15,-0.26 -7.21,-1.1 -2.05,-0.84 -3.64,-2.14 -4.78,-3.9 -1.14,-1.76 -1.7,-3.99 -1.68,-6.67l0 -39.73zm92.37 15.3l-11.7 0c-0.21,-1.51 -0.65,-2.86 -1.31,-4.03 -0.66,-1.19 -1.51,-2.21 -2.54,-3.05 -1.03,-0.84 -2.23,-1.48 -3.58,-1.92 -1.33,-0.44 -2.78,-0.67 -4.35,-0.67 -2.83,0 -5.29,0.7 -7.4,2.11 -2.1,1.39 -3.73,3.42 -4.89,6.09 -1.16,2.65 -1.74,5.87 -1.74,9.66 0,3.9 0.58,7.17 1.74,9.83 1.17,2.65 2.81,4.65 4.91,6 2.1,1.36 4.53,2.03 7.29,2.03 1.55,0 2.98,-0.21 4.3,-0.61 1.34,-0.41 2.52,-1.01 3.55,-1.79 1.03,-0.8 1.89,-1.77 2.56,-2.91 0.7,-1.14 1.18,-2.44 1.44,-3.9l11.7 0.05c-0.31,2.51 -1.06,4.93 -2.27,7.26 -1.19,2.31 -2.8,4.39 -4.83,6.22 -2.01,1.81 -4.42,3.25 -7.21,4.32 -2.78,1.05 -5.92,1.58 -9.43,1.58 -4.87,0 -9.24,-1.1 -13.08,-3.31 -3.83,-2.21 -6.85,-5.4 -9.08,-9.58 -2.21,-4.19 -3.31,-9.25 -3.31,-15.19 0,-5.96 1.12,-11.03 3.36,-15.22 2.25,-4.18 5.29,-7.37 9.14,-9.56 3.84,-2.21 8.17,-3.31 12.97,-3.31 3.17,0 6.11,0.44 8.81,1.33 2.72,0.89 5.13,2.19 7.24,3.9 2.1,1.69 3.81,3.76 5.12,6.22 1.34,2.45 2.19,5.27 2.57,8.44zm19.45 11.83l0 23.71 -11.37 0 0 -54.68 11.05 0 0 20.9 0.48 0c0.92,-2.42 2.42,-4.32 4.48,-5.69 2.07,-1.39 4.66,-2.08 7.77,-2.08 2.85,0 5.33,0.62 7.45,1.87 2.13,1.23 3.79,3 4.96,5.31 1.19,2.3 1.78,5.05 1.76,8.25l0 26.11 -11.38 0 0 -24.08c0.02,-2.53 -0.62,-4.49 -1.92,-5.9 -1.28,-1.41 -3.08,-2.11 -5.39,-2.11 -1.55,0 -2.92,0.33 -4.11,0.99 -1.17,0.66 -2.1,1.62 -2.78,2.88 -0.66,1.25 -0.99,2.75 -1.01,4.51zm47.24 24.48c-2.62,0 -4.95,-0.45 -7,-1.36 -2.05,-0.92 -3.67,-2.29 -4.86,-4.09 -1.17,-1.81 -1.76,-4.07 -1.76,-6.78 0,-2.28 0.42,-4.19 1.25,-5.74 0.84,-1.55 1.98,-2.79 3.42,-3.74 1.44,-0.94 3.08,-1.65 4.91,-2.14 1.85,-0.48 3.79,-0.82 5.82,-1.01 2.38,-0.25 4.31,-0.48 5.77,-0.7 1.46,-0.23 2.52,-0.57 3.18,-1.01 0.66,-0.45 0.99,-1.1 0.99,-1.98l0 -0.16c0,-1.69 -0.53,-3 -1.6,-3.93 -1.05,-0.92 -2.54,-1.39 -4.48,-1.39 -2.05,0 -3.68,0.45 -4.89,1.36 -1.21,0.89 -2.01,2.01 -2.4,3.36l-10.52 -0.85c0.53,-2.49 1.58,-4.65 3.15,-6.46 1.57,-1.83 3.59,-3.24 6.06,-4.22 2.49,-1 5.38,-1.5 8.65,-1.5 2.28,0 4.46,0.27 6.54,0.8 2.1,0.54 3.96,1.36 5.58,2.49 1.64,1.12 2.93,2.56 3.87,4.32 0.94,1.74 1.41,3.84 1.41,6.28l0 27.66 -10.79 0 0 -5.69 -0.32 0c-0.66,1.28 -1.54,2.41 -2.65,3.39 -1.1,0.96 -2.43,1.72 -3.98,2.27 -1.55,0.54 -3.34,0.8 -5.37,0.8zm3.26 -7.85c1.67,0 3.15,-0.33 4.43,-0.99 1.28,-0.68 2.29,-1.58 3.02,-2.72 0.73,-1.14 1.1,-2.43 1.1,-3.87l0 -4.35c-0.36,0.23 -0.85,0.44 -1.47,0.64 -0.61,0.18 -1.29,0.35 -2.06,0.5 -0.77,0.14 -1.53,0.28 -2.3,0.4 -0.77,0.1 -1.46,0.2 -2.08,0.29 -1.34,0.2 -2.5,0.51 -3.5,0.94 -0.99,0.43 -1.77,1.01 -2.32,1.73 -0.55,0.71 -0.83,1.6 -0.83,2.67 0,1.55 0.56,2.73 1.68,3.55 1.14,0.8 2.58,1.2 4.33,1.2zm28.66 7.07l0 -41.01 11.03 0 0 7.15 0.43 0c0.75,-2.54 2,-4.47 3.77,-5.77 1.76,-1.32 3.79,-1.98 6.09,-1.98 0.57,0 1.18,0.04 1.84,0.11 0.66,0.07 1.24,0.17 1.74,0.3l0 10.09c-0.54,-0.16 -1.27,-0.3 -2.21,-0.43 -0.94,-0.12 -1.81,-0.19 -2.59,-0.19 -1.67,0 -3.17,0.37 -4.49,1.1 -1.3,0.71 -2.33,1.71 -3.1,2.99 -0.75,1.28 -1.12,2.76 -1.12,4.43l0 23.2 -11.38 0zm47.33 16.24c-3.68,0 -6.84,-0.51 -9.48,-1.52 -2.62,-1 -4.7,-2.36 -6.25,-4.09 -1.55,-1.73 -2.56,-3.67 -3.02,-5.82l10.52 -1.42c0.32,0.82 0.83,1.58 1.52,2.3 0.7,0.71 1.61,1.28 2.75,1.71 1.16,0.45 2.56,0.67 4.22,0.67 2.47,0 4.51,-0.61 6.11,-1.81 1.62,-1.19 2.43,-3.2 2.43,-6.01l0 -7.5 -0.48 0c-0.5,1.14 -1.25,2.22 -2.24,3.23 -1,1.01 -2.28,1.84 -3.85,2.48 -1.57,0.64 -3.44,0.96 -5.61,0.96 -3.08,0 -5.88,-0.71 -8.41,-2.14 -2.51,-1.44 -4.51,-3.64 -6.01,-6.6 -1.48,-2.97 -2.21,-6.73 -2.21,-11.27 0,-4.65 0.75,-8.53 2.27,-11.64 1.51,-3.12 3.52,-5.45 6.04,-7 2.52,-1.55 5.29,-2.32 8.3,-2.32 2.3,0 4.22,0.39 5.77,1.18 1.55,0.77 2.8,1.72 3.74,2.88 0.96,1.14 1.7,2.26 2.21,3.36l0.43 0 0 -6.89 11.3 0 0 41.41c0,3.49 -0.85,6.41 -2.56,8.76 -1.71,2.35 -4.07,4.11 -7.1,5.29 -3.01,1.19 -6.47,1.79 -10.39,1.79zm0.24 -25.37c1.83,0 3.38,-0.45 4.65,-1.36 1.28,-0.93 2.26,-2.25 2.94,-3.95 0.69,-1.72 1.04,-3.79 1.04,-6.19 0,-2.4 -0.34,-4.49 -1.02,-6.25 -0.68,-1.78 -1.65,-3.16 -2.94,-4.14 -1.28,-0.97 -2.84,-1.46 -4.67,-1.46 -1.87,0 -3.44,0.5 -4.72,1.52 -1.28,1 -2.25,2.38 -2.91,4.17 -0.66,1.78 -0.99,3.83 -0.99,6.17 0,2.37 0.33,4.41 0.99,6.14 0.68,1.71 1.65,3.04 2.91,3.98 1.28,0.92 2.85,1.39 4.72,1.39zm47.55 9.93c-4.22,0 -7.85,-0.85 -10.9,-2.56 -3.03,-1.72 -5.36,-4.16 -7,-7.31 -1.64,-3.17 -2.45,-6.91 -2.45,-11.24 0,-4.22 0.82,-7.92 2.45,-11.11 1.64,-3.19 3.95,-5.67 6.92,-7.45 2.99,-1.78 6.49,-2.67 10.52,-2.67 2.71,0 5.22,0.44 7.56,1.31 2.35,0.85 4.39,2.14 6.14,3.87 1.76,1.72 3.13,3.9 4.11,6.51 0.98,2.6 1.47,5.64 1.47,9.13l0 3.12 -34.63 0 0 -7.05 23.92 0c0,-1.64 -0.36,-3.09 -1.07,-4.35 -0.71,-1.26 -1.7,-2.25 -2.96,-2.96 -1.25,-0.73 -2.7,-1.1 -4.35,-1.1 -1.72,0 -3.25,0.4 -4.59,1.2 -1.32,0.78 -2.35,1.84 -3.1,3.18 -0.75,1.31 -1.13,2.78 -1.15,4.4l0 6.7c0,2.03 0.37,3.78 1.12,5.26 0.77,1.48 1.84,2.62 3.23,3.42 1.39,0.8 3.03,1.2 4.94,1.2 1.27,0 2.42,-0.18 3.47,-0.54 1.05,-0.36 1.95,-0.89 2.7,-1.6 0.75,-0.71 1.32,-1.58 1.71,-2.61l10.52 0.7c-0.53,2.52 -1.63,4.73 -3.28,6.62 -1.64,1.87 -3.76,3.33 -6.35,4.38 -2.58,1.03 -5.56,1.55 -8.95,1.55z"/>
 </g>
</svg>
