<?xml version="1.0" encoding="UTF-8"?>
<!DOCTYPE svg PUBLIC "-//W3C//DTD SVG 1.1//EN" "http://www.w3.org/Graphics/SVG/1.1/DTD/svg11.dtd">
<!-- Creator: CorelDRAW -->
<svg xmlns="http://www.w3.org/2000/svg" xml:space="preserve" width="0.299882in" height="0.45689in" version="1.1" style="shape-rendering:geometricPrecision; text-rendering:geometricPrecision; image-rendering:optimizeQuality; fill-rule:evenodd; clip-rule:evenodd"
viewBox="0 0 79.03 120.4"
 xmlns:xlink="http://www.w3.org/1999/xlink"
 xmlns:xodm="http://www.corel.com/coreldraw/odm/2003">
 <defs>
  <style type="text/css">
   <![CDATA[
    .str0 {stroke:#2B2A29;stroke-width:3.66;stroke-miterlimit:2.61313}
    .fil2 {fill:none}
    .fil0 {fill:#2B2A29}
    .fil1 {fill:#2B2A29;fill-rule:nonzero}
   ]]>
  </style>
 </defs>
 <g id="Layer_x0020_1">
  <metadata id="CorelCorpID_0Corel-Layer"/>
  <path class="fil0" d="M37.34 60.08c0,1.34 1.29,0.99 3.47,0.99 1.21,0 1.09,-1.78 0.2,-1.78l-2.87 0c-0.48,0 -0.79,0.31 -0.79,0.79z"/>
  <path class="fil1" d="M39.11 79.25c-0.96,0 -1.7,-0.28 -2.24,-0.85 -0.53,-0.56 -0.81,-1.32 -0.81,-2.29l0 -13.44 -20.21 0 0 13.44c0,0.96 -0.27,1.73 -0.81,2.29 -0.54,0.57 -1.28,0.85 -2.22,0.85 -0.96,0 -1.7,-0.28 -2.23,-0.85 -0.54,-0.56 -0.8,-1.32 -0.8,-2.29l0 -31.82c0,-1 0.25,-1.77 0.77,-2.32 0.51,-0.55 1.26,-0.82 2.25,-0.82 0.97,0 1.72,0.27 2.25,0.82 0.52,0.54 0.78,1.32 0.78,2.31l0 13.08 20.21 0 0 -13.08c0,-0.99 0.27,-1.77 0.82,-2.33 0.49,-0.53 1.24,-0.8 2.23,-0.8 0.98,0 1.73,0.27 2.25,0.82 0.51,0.54 0.76,1.32 0.76,2.32l0 31.82c0,0.96 -0.26,1.73 -0.79,2.29 -0.53,0.57 -1.27,0.85 -2.22,0.85z"/>
  <path id="_1" class="fil1" d="M66.66 78.94l-19.43 0c-1.44,0 -2.16,-0.52 -2.16,-1.56 0,-0.54 0.18,-1.05 0.52,-1.51l14.49 -20.14 -12.08 0c-0.79,0 -1.41,-0.21 -1.86,-0.63 -0.46,-0.42 -0.68,-1.01 -0.68,-1.76 0,-0.75 0.23,-1.34 0.68,-1.76 0.45,-0.42 1.07,-0.63 1.86,-0.63l18.96 0c0.99,0 1.49,0.46 1.49,1.4 0,0.56 -0.21,1.15 -0.64,1.75l-14.57 20.12 13.41 0c0.81,0 1.44,0.21 1.89,0.63 0.46,0.41 0.68,0.99 0.68,1.72 0,0.75 -0.23,1.34 -0.68,1.75 -0.45,0.42 -1.08,0.63 -1.89,0.63z"/>
  <rect class="fil2 str0" x="1.83" y="1.83" width="75.37" height="116.74" rx="5.59" ry="5.59"/>
 </g>
</svg>
