<svg width="40" height="38" viewBox="0 0 40 38" fill="none" xmlns="http://www.w3.org/2000/svg">
<path d="M8.26082 5.99418V22H4.87677V9.20629H4.78299L1.11759 11.504V8.50291L5.07997 5.99418H8.26082ZM12.0649 22V19.5616L17.7623 14.2863C18.2469 13.8173 18.6533 13.3953 18.9815 13.0202C19.315 12.645 19.5677 12.2777 19.7396 11.9182C19.9115 11.5535 19.9975 11.1601 19.9975 10.7381C19.9975 10.2692 19.8907 9.86538 19.6771 9.52672C19.4635 9.18284 19.1717 8.91972 18.8018 8.73737C18.4318 8.5498 18.0124 8.45601 17.5435 8.45601C17.0537 8.45601 16.6265 8.55501 16.2618 8.753C15.8971 8.95099 15.6157 9.23494 15.4177 9.60487C15.2197 9.9748 15.1207 10.4151 15.1207 10.9257H11.9086C11.9086 9.87841 12.1457 8.96922 12.6198 8.19811C13.094 7.42699 13.7583 6.83042 14.6127 6.40839C15.4672 5.98637 16.4519 5.77535 17.5669 5.77535C18.7132 5.77535 19.7109 5.97855 20.5602 6.38495C21.4147 6.78614 22.079 7.34363 22.5531 8.05743C23.0273 8.77123 23.2643 9.58924 23.2643 10.5114C23.2643 11.1158 23.1445 11.7124 22.9048 12.3012C22.6703 12.8899 22.2509 13.5438 21.6465 14.2628C21.0422 14.9766 20.1903 15.8337 19.0909 16.8341L16.7541 19.124V19.2334H23.4753V22H12.0649ZM32.2031 22.3517C30.8589 22.3465 29.7022 22.0156 28.7331 21.3591C27.7692 20.7027 27.0268 19.7518 26.5057 18.5065C25.9899 17.2613 25.7346 15.7634 25.7398 14.0127C25.7398 12.2673 25.9977 10.7798 26.5135 9.55016C27.0346 8.32055 27.777 7.38531 28.7409 6.74446C29.71 6.09839 30.8641 5.77535 32.2031 5.77535C33.5421 5.77535 34.6936 6.09839 35.6575 6.74446C36.6266 7.39052 37.3717 8.32836 37.8927 9.55798C38.4137 10.7824 38.6716 12.2673 38.6664 14.0127C38.6664 15.7686 38.4059 17.2691 37.8849 18.5144C37.3691 19.7596 36.6292 20.7105 35.6653 21.367C34.7014 22.0234 33.5474 22.3517 32.2031 22.3517ZM32.2031 19.546C33.1201 19.546 33.8521 19.0849 34.3992 18.1627C34.9463 17.2405 35.2172 15.8571 35.212 14.0127C35.212 12.7987 35.087 11.788 34.8369 10.9804C34.592 10.1728 34.2429 9.56579 33.7896 9.15939C33.3415 8.753 32.8127 8.5498 32.2031 8.5498C31.2913 8.5498 30.5619 9.00569 30.0148 9.91748C29.4677 10.8293 29.1916 12.1944 29.1864 14.0127C29.1864 15.2423 29.3088 16.2688 29.5537 17.092C29.8038 17.91 30.1555 18.5248 30.6088 18.9364C31.0621 19.3428 31.5935 19.546 32.2031 19.546Z" fill="#2B2A29"/>
<path d="M19.3281 23.5418V25.4762H14.3106V34.6387H11.9645V23.5418H19.3281ZM27.1997 26.316V33.0457H28.5272V37.3154H26.284V34.6387H19.9228V26.316H22.1281V32.8235H25.0215V26.316H27.1997Z" fill="#2B2A29"/>
</svg>
