<?xml version="1.0" encoding="UTF-8"?>
<!DOCTYPE svg PUBLIC "-//W3C//DTD SVG 1.1//EN" "http://www.w3.org/Graphics/SVG/1.1/DTD/svg11.dtd">
<!-- Creator: CorelDRAW -->
<svg xmlns="http://www.w3.org/2000/svg" xml:space="preserve" width="0.517in" height="0.117287in" version="1.1" style="shape-rendering:geometricPrecision; text-rendering:geometricPrecision; image-rendering:optimizeQuality; fill-rule:evenodd; clip-rule:evenodd"
viewBox="0 0 520.74 118.14"
 xmlns:xlink="http://www.w3.org/1999/xlink"
 xmlns:xodm="http://www.corel.com/coreldraw/odm/2003">
 <defs>
  <style type="text/css">
   <![CDATA[
    .fil0 {fill:#2B2A29;fill-rule:nonzero}
   ]]>
  </style>
 </defs>
 <g id="Layer_x0020_1">
  <metadata id="CorelCorpID_0Corel-Layer"/>
  <path class="fil0" d="M23.25 116.43l-23.25 0 35.42 -116.43 27.95 0 35.37 116.43 -23.24 0 -25.7 -89.82 -0.8 0 -25.75 89.82zm-1.46 -45.77l54.91 0 0 19.22 -54.91 0 0 -19.22zm88.89 45.77l0 -87.32 20.34 0 0 15.41 0.9 0c1.6,-5.12 4.27,-9.16 8.01,-12.11 3.74,-2.96 8.22,-4.43 13.42,-4.43 5.28,0 9.77,1.49 13.48,4.49 3.71,2.96 6.18,6.98 7.42,12.06l0.8 0c1.57,-5 4.41,-9 8.51,-12 4.14,-3.03 9.03,-4.55 14.68,-4.55 7.18,0 13,2.59 17.48,7.79 4.51,5.16 6.76,12.47 6.76,21.95l0 58.73 -21.29 0 0 -53.95c0,-4.85 -1.13,-8.49 -3.41,-10.92 -2.27,-2.42 -5.11,-3.64 -8.51,-3.64 -3.87,0 -6.9,1.4 -9.07,4.21 -2.17,2.76 -3.26,6.42 -3.26,10.97l0 53.32 -20.69 0 0 -54.46c0,-4.28 -1.09,-7.69 -3.26,-10.23 -2.14,-2.54 -4.96,-3.81 -8.47,-3.81 -2.37,0 -4.5,0.68 -6.41,2.05 -1.87,1.32 -3.35,3.2 -4.46,5.63 -1.1,2.39 -1.65,5.19 -1.65,8.41l0 52.42 -21.34 0zm163.43 1.71c-7.78,0 -14.51,-1.88 -20.19,-5.63 -5.64,-3.79 -10,-9.06 -13.07,-15.81 -3.08,-6.78 -4.61,-14.65 -4.61,-23.59 0,-9.02 1.53,-16.9 4.61,-23.65 3.07,-6.78 7.43,-12.05 13.07,-15.81 5.68,-3.79 12.41,-5.68 20.19,-5.68 7.78,0 14.5,1.9 20.14,5.68 5.67,3.76 10.05,9.02 13.12,15.81 3.07,6.75 4.61,14.63 4.61,23.65 0,8.94 -1.53,16.81 -4.61,23.59 -3.07,6.75 -7.45,12.02 -13.12,15.81 -5.64,3.75 -12.36,5.63 -20.14,5.63zm0.1 -18.76c3.55,0 6.5,-1.14 8.87,-3.41 2.37,-2.31 4.16,-5.46 5.36,-9.44 1.24,-3.98 1.85,-8.51 1.85,-13.59 0,-5.08 -0.61,-9.61 -1.85,-13.59 -1.2,-3.98 -2.99,-7.13 -5.36,-9.44 -2.38,-2.31 -5.33,-3.47 -8.87,-3.47 -3.57,0 -6.57,1.16 -9.01,3.47 -2.4,2.31 -4.23,5.46 -5.46,9.44 -1.21,3.98 -1.8,8.51 -1.8,13.59 0,5.08 0.6,9.6 1.8,13.59 1.23,3.98 3.06,7.13 5.46,9.44 2.44,2.27 5.44,3.41 9.01,3.41zm72.99 -99.38l0 116.43 -21.34 0 0 -116.43 21.34 0zm52.16 118.14c-7.92,0 -14.73,-1.82 -20.44,-5.46 -5.68,-3.68 -10.05,-8.87 -13.13,-15.58 -3.07,-6.75 -4.61,-14.73 -4.61,-23.94 0,-8.98 1.53,-16.87 4.61,-23.65 3.07,-6.78 7.4,-12.07 12.98,-15.86 5.61,-3.79 12.19,-5.68 19.74,-5.68 5.08,0 9.8,0.93 14.18,2.78 4.41,1.82 8.25,4.57 11.52,8.24 3.3,3.68 5.88,8.3 7.71,13.87 1.84,5.53 2.76,12.02 2.76,19.44l0 6.65 -64.97 0 0 -15.01 44.89 0c0,-3.49 -0.67,-6.58 -2,-9.27 -1.34,-2.69 -3.19,-4.79 -5.56,-6.31 -2.34,-1.55 -5.06,-2.33 -8.16,-2.33 -3.24,0 -6.11,0.85 -8.62,2.56 -2.47,1.67 -4.41,3.92 -5.81,6.77 -1.4,2.8 -2.12,5.93 -2.15,9.38l0 14.27c0,4.32 0.7,8.05 2.1,11.2 1.44,3.14 3.46,5.57 6.06,7.28 2.6,1.71 5.69,2.56 9.27,2.56 2.37,0 4.54,-0.38 6.51,-1.14 1.97,-0.76 3.66,-1.9 5.06,-3.41 1.4,-1.51 2.47,-3.37 3.2,-5.57l19.74 1.48c-1,5.38 -3.05,10.08 -6.16,14.1 -3.07,3.98 -7.05,7.09 -11.92,9.32 -4.84,2.2 -10.43,3.3 -16.78,3.3zm77.6 -0.29c-5.85,0 -11.14,-1.71 -15.88,-5.12 -4.71,-3.45 -8.45,-8.51 -11.22,-15.18 -2.74,-6.71 -4.11,-14.93 -4.11,-24.67 0,-10 1.42,-18.32 4.26,-24.95 2.84,-6.67 6.61,-11.65 11.32,-14.95 4.74,-3.33 9.93,-5 15.58,-5 4.31,0 7.9,0.83 10.77,2.5 2.9,1.63 5.24,3.68 7.01,6.14 1.8,2.43 3.18,4.81 4.11,7.16l0.65 0 0 -43.78 21.29 0 0 116.43 -21.04 0 0 -13.99 -0.9 0c-1,2.43 -2.42,4.83 -4.25,7.22 -1.8,2.35 -4.16,4.3 -7.07,5.86 -2.87,1.55 -6.38,2.33 -10.52,2.33zm6.76 -19.27c3.44,0 6.34,-1.06 8.72,-3.18 2.4,-2.16 4.24,-5.17 5.51,-9.04 1.3,-3.87 1.95,-8.39 1.95,-13.59 0,-5.19 -0.63,-9.7 -1.9,-13.53 -1.27,-3.83 -3.1,-6.78 -5.51,-8.87 -2.4,-2.08 -5.33,-3.12 -8.76,-3.12 -3.51,0 -6.46,1.08 -8.87,3.24 -2.41,2.16 -4.22,5.16 -5.46,8.98 -1.24,3.83 -1.86,8.26 -1.86,13.3 0,5.08 0.62,9.57 1.86,13.47 1.27,3.87 3.09,6.9 5.46,9.1 2.4,2.16 5.36,3.24 8.87,3.24z"/>
 </g>
</svg>
