<svg width="37" height="36" viewBox="0 0 37 36" fill="none" xmlns="http://www.w3.org/2000/svg">
<path d="M10.7274 23.5574V12.2822C10.7274 11.664 10.9779 11.1053 11.383 10.7001C11.7882 10.295 12.3478 10.0445 12.9651 10.0445H24.2403C24.8576 10.0445 25.4173 10.295 25.8224 10.7001L25.9117 10.8C26.264 11.1955 26.4781 11.7149 26.4781 12.2832V23.5584C26.4781 24.1728 26.2266 24.7315 25.8224 25.1366L25.8176 25.1414C25.4125 25.5465 24.8538 25.7971 24.2394 25.7971H12.9642C12.3498 25.7971 11.792 25.5465 11.3869 25.1414H11.3821C10.977 24.7363 10.7264 24.1757 10.7264 23.5593L10.7274 23.5574ZM13.2147 12.5318V23.3088H23.9917V12.5318H13.2147ZM33.1117 5.65056V8.3856H35.1843C35.8707 8.3856 36.4285 8.9424 36.4285 9.62976C36.4285 10.3162 35.8717 10.873 35.1843 10.873H33.1117V16.6761H35.1843C35.8707 16.6761 36.4285 17.2329 36.4285 17.9203C36.4285 18.6067 35.8717 19.1635 35.1843 19.1635H33.1117V24.9667H35.1843C35.8707 24.9667 36.4285 25.5235 36.4285 26.2109C36.4285 26.8973 35.8717 27.4541 35.1843 27.4541H33.1117V30.1901C33.1117 30.8045 32.8611 31.3632 32.456 31.7683L32.4512 31.7731C32.0461 32.1782 31.4874 32.4288 30.873 32.4288H28.137V34.5014C28.137 35.1878 27.5802 35.7446 26.8938 35.7446C26.2074 35.7446 25.6506 35.1878 25.6506 34.5014V32.4288H19.8464V34.5014C19.8464 35.1878 19.2896 35.7446 18.6032 35.7446C17.9168 35.7446 17.36 35.1878 17.36 34.5014V32.4288H11.5568V34.5014C11.5568 35.1878 11 35.7446 10.3136 35.7446C9.62721 35.7446 9.0704 35.1878 9.0704 34.5014V32.4288H6.3344C5.71712 32.4288 5.15649 32.1782 4.75137 31.7731L4.66209 31.6733C4.30977 31.2777 4.09568 30.7574 4.09568 30.1901V27.4541H2.02401C1.33761 27.4541 0.779846 26.8973 0.779846 26.2109C0.779846 25.5245 1.33665 24.9667 2.02401 24.9667H4.09568V19.1635H2.02401C1.33761 19.1635 0.779846 18.6067 0.779846 17.9203C0.779846 17.2329 1.33665 16.6761 2.02401 16.6761H4.09568V10.873H2.02401C1.33761 10.873 0.779846 10.3162 0.779846 9.62976C0.779846 8.9424 1.33665 8.3856 2.02401 8.3856H4.09568V5.65056C4.09568 5.03328 4.34625 4.47168 4.75137 4.06752C5.15649 3.6624 5.71712 3.41184 6.3344 3.41184H9.0704V1.34015C9.0704 0.65375 9.62721 0.0969543 10.3136 0.0969543C11 0.0969543 11.5568 0.65375 11.5568 1.34015V3.41184H17.36V1.34015C17.36 0.65375 17.9168 0.0969543 18.6032 0.0969543C19.2896 0.0969543 19.8464 0.65375 19.8464 1.34015V3.41184H25.6506V1.34015C25.6506 0.65375 26.2074 0.0969543 26.8938 0.0969543C27.5802 0.0969543 28.137 0.65375 28.137 1.34015V3.41184H30.873C31.4874 3.41184 32.0461 3.6624 32.4512 4.06752H32.456C32.8611 4.47264 33.1117 5.03328 33.1117 5.65056V5.65056ZM30.6243 29.9414V5.89823H6.58113V29.9414H30.6243Z" fill="#2B2A29"/>
</svg>
