<svg width="31" height="37" viewBox="0 0 31 37" fill="none" xmlns="http://www.w3.org/2000/svg">
<path fill-rule="evenodd" clip-rule="evenodd" d="M2.01085 32.6787V4.82815C2.01085 4.14367 2.26333 3.55712 2.58493 3.17504C2.88061 2.82464 3.47104 2.4608 4.09984 2.4608H26.6589C27.856 2.4608 28.7478 3.52543 28.7478 4.82815V32.6787C28.7478 33.9814 27.8569 35.0461 26.6589 35.0461H4.09984C2.88256 35.0461 2.01085 33.9469 2.01085 32.6787V32.6787ZM0.479683 5.17663V32.3302C0.479683 33.9574 0.989445 35.3946 2.4976 36.1606C2.92288 36.3766 3.38846 36.5773 4.0307 36.5773H26.7981C27.3184 36.5773 27.9136 36.3373 28.2611 36.1606C28.6202 35.9782 29.0982 35.6106 29.3565 35.3062C30.0621 34.4758 30.2791 33.4381 30.2791 32.3302V5.17663C30.2791 4.50655 30.2157 3.97471 30.0573 3.44863C29.7981 2.58271 29.0781 1.76191 28.2602 1.34623C27.8349 1.13023 27.3693 0.929596 26.728 0.929596H4.02976C2.49856 0.929596 1.19102 2.08064 0.694699 3.44384C0.539179 3.872 0.478699 4.59584 0.478699 5.1776L0.479683 5.17663Z" fill="#2B2A29"/>
<path fill-rule="evenodd" clip-rule="evenodd" d="M4.93506 22.6534V29.6163C4.93506 31.0774 6.4125 30.825 6.46914 29.9667L6.53054 25.305L6.68992 25.5632C7.51456 26.8995 8.66846 28.977 9.43262 30.1318C10.1593 31.2291 10.9225 30.3939 10.9225 29.9648V22.375C10.9225 21.8586 10.3283 21.5629 9.85407 21.7923C9.36351 22.0294 9.39137 22.5181 9.39137 23.2102C9.39137 24.487 9.39137 25.7629 9.39137 27.0397C9.38081 27.0272 9.36254 26.9926 9.3587 27.0032L6.34431 22.0112C5.88063 21.3901 4.936 21.7414 4.936 22.6534H4.93506Z" fill="#2B2A29"/>
<path fill-rule="evenodd" clip-rule="evenodd" d="M12.3856 23.9062V29.8938C12.3856 30.895 13.9178 30.895 13.9178 29.8938V27.6656H17.6771C18.4989 27.6656 18.8205 26.1344 17.3286 26.1344H13.9168C13.9168 22.4451 13.5693 23.3264 17.6099 23.2131C18.5862 23.1862 18.7696 21.6781 17.3277 21.6781H14.8211C13.5088 21.6781 12.3846 22.6179 12.3846 23.9062H12.3856Z" fill="#2B2A29"/>
<path fill-rule="evenodd" clip-rule="evenodd" d="M19.8352 23.8361V28.64C19.8352 29.1459 20.2643 29.8458 20.5485 30.0858C20.92 30.3987 21.4672 30.6598 22.1325 30.6598H25.0566C25.768 30.6598 26.1414 29.5962 25.3379 29.1949C24.5728 28.8118 21.3664 29.7085 21.3664 28.5018V23.9062C21.3664 23.1987 22.1392 23.2083 22.5501 23.2093C23.2 23.2112 23.8499 23.2093 24.4998 23.2093C25.2534 23.2093 25.623 23.2659 25.7862 22.6102C25.9168 22.0861 25.3926 21.6781 24.8483 21.6781C23.3382 21.6781 21.4451 21.4304 20.583 22.2867C20.3315 22.5363 20.2605 22.5661 20.0905 22.9078C19.9398 23.2102 19.8361 23.408 19.8361 23.8371L19.8352 23.8361Z" fill="#2B2A29"/>
<path fill-rule="evenodd" clip-rule="evenodd" d="M8.83456 9.35457C8.83456 9.93921 9.15425 10.1898 9.66977 10.1898C10.0106 10.1898 10.0874 9.99681 10.2775 9.82305L10.8112 9.38145C13.5943 7.29345 17.0915 7.30208 19.9053 9.3536C20.5581 9.82976 20.607 10.1898 21.2282 10.1898C21.785 10.1898 22.3466 9.34497 21.4643 8.69985C20.801 8.21409 20.9248 8.02017 19.3245 7.21953C16.0538 5.58369 11.9978 6.152 9.37507 8.64224C9.24163 8.76896 9.14657 8.79777 9.04001 8.93409C8.97569 9.01473 8.83362 9.21633 8.83362 9.35457H8.83456Z" fill="#2B2A29"/>
<path fill-rule="evenodd" clip-rule="evenodd" d="M11.4803 12.0003C11.4803 12.6733 12.088 13.2378 12.9242 12.4698C14.1942 11.3034 16.4474 11.2803 17.7981 12.4362C18.065 12.6646 18.1398 12.8365 18.5824 12.8365C19.048 12.8365 19.865 12.0493 18.6525 11.1651L17.7472 10.6083C14.6253 9.04161 11.4803 11.2016 11.4803 12.0003V12.0003Z" fill="#2B2A29"/>
<path fill-rule="evenodd" clip-rule="evenodd" d="M14.2653 15.0637C14.2653 16.6832 15.9357 16.6515 16.3936 15.7299C16.7421 15.0291 16.2563 14.0893 15.3789 14.0893C14.8345 14.0893 14.2653 14.551 14.2653 15.0637V15.0637Z" fill="#2B2A29"/>
</svg>
