<svg width="23" height="37" viewBox="0 0 23 37" fill="none" xmlns="http://www.w3.org/2000/svg">
<path d="M2.90561 1.00448C3.26081 0.928639 3.61025 0.929598 3.95777 0.931518L4.18146 0.929596C6.57186 0.934396 8.96321 0.93344 11.3536 0.93344C14.1251 0.93344 16.8986 0.931523 19.6701 0.937283C20.1789 0.924803 20.6743 1.07839 21.0928 1.34815C21.5181 1.62175 21.8685 2.0192 22.0768 2.48576C22.3178 3.02336 22.3111 3.57055 22.3043 4.10719C22.2765 13.8214 22.264 23.552 22.3043 33.2653C22.3101 33.7069 22.3159 34.1504 22.2199 34.5997L22.216 34.615C22.0826 35.1421 21.7715 35.6154 21.3578 35.9619C20.9507 36.3037 20.44 36.5254 19.8976 36.5581C19.5703 36.5811 19.2323 36.5773 18.8944 36.5744C13.9101 36.5466 8.92289 36.5888 3.93857 36.5744C3.42593 36.5754 2.89794 36.5773 2.3901 36.3181C1.92834 36.0973 1.54913 35.7402 1.29089 35.3139C1.02977 34.8819 0.888655 34.3731 0.907855 33.8576C0.905935 23.9878 0.944335 14.1114 0.902095 4.24256C0.899215 3.89888 0.896335 3.55232 0.934735 3.2096C0.992335 2.68544 1.22561 2.19968 1.56929 1.81376C1.91585 1.424 2.38145 1.13312 2.89313 1.0064L2.90657 1.00256L2.90561 1.00448ZM18.1725 10.9597L18.3415 15.7213L16.7776 14.4877L8.65889 24.7789L10.2218 26.0125L5.05122 27.0579L4.86401 21.7856L6.42786 23.0192L14.5466 12.728L12.9837 11.4944L18.1543 10.449L18.1725 10.9587V10.9597ZM10.4637 31.8483L11.5994 31.8387L13.1411 31.855L13.1623 32.2602C13.1728 32.4627 13.1786 32.673 13.1786 32.8909C13.1795 33.104 13.1747 33.3142 13.1651 33.5168L13.1459 33.9277L11.6003 33.9363L10.0567 33.9277L10.0365 33.5187C10.025 33.2922 10.0192 33.0829 10.0192 32.889C10.0192 32.696 10.025 32.4867 10.0365 32.2611L10.0567 31.8541L10.4637 31.8483V31.8483ZM9.2781 3.59744C10.1066 3.58112 10.8784 3.57248 11.6003 3.57248C12.376 3.5744 13.1507 3.58304 13.9216 3.59744L14.3882 3.60704L14.3479 4.06784C14.3392 4.17056 14.3335 4.26176 14.3335 4.33856C14.3335 4.41632 14.3373 4.50656 14.3459 4.6064L14.3834 5.06815L13.9178 5.07488C13.0749 5.08736 12.305 5.09408 11.609 5.09408C10.8314 5.09312 10.0547 5.08736 9.28193 5.07584L8.81825 5.06912L8.85377 4.61023L8.86529 4.33471L8.85281 4.06592L8.81537 3.60704L9.27713 3.59744H9.2781ZM3.37985 3.06656C3.27809 3.0896 3.18593 3.15104 3.12065 3.23456C3.05441 3.31616 3.01601 3.41791 3.01889 3.51967V3.53984C3.00449 4.18208 3.01026 4.82624 3.01698 5.46848C3.82626 5.47712 4.63457 5.4752 5.44193 5.47328H12.4663C15.04 5.4752 17.6147 5.47711 20.1885 5.46463L20.1914 5.27744C20.2 4.6784 20.2087 4.07647 20.1741 3.47263V3.46496C20.1674 3.34592 20.0992 3.2384 20.0032 3.1616C19.8947 3.0752 19.7536 3.02816 19.6144 3.03392C14.5735 3.17792 9.25121 3.06176 4.18529 3.02912C3.91169 3.02432 3.63521 3.01952 3.37985 3.06656V3.06656ZM3.02081 7.60352C3.01121 14.839 3.01217 22.0765 3.02081 29.312L11.6023 29.3226L20.1914 29.312C20.1962 29.0826 20.2019 28.8512 20.1962 28.6246V28.6141C20.1914 25.543 20.1933 22.4701 20.1943 19.399C20.1952 15.4678 20.1971 11.5347 20.1866 7.60448C18.5517 7.58816 16.9168 7.59104 15.2829 7.59392C14.1501 7.59584 13.0154 7.59776 11.8816 7.59392C10.6903 7.59776 9.49601 7.59584 8.30465 7.59392C6.54401 7.592 4.78241 7.58816 3.02081 7.60448V7.60352ZM3.01793 31.423C3.01121 31.7859 3.01217 32.1469 3.01313 32.5078C3.01505 32.8707 3.01601 33.2355 3.00929 33.5965L3.01025 33.6637C3.01217 33.8989 3.01601 34.16 3.13025 34.2771L3.14849 34.2992C3.19553 34.3539 3.26177 34.3942 3.33569 34.4221C3.44609 34.4634 3.57569 34.4778 3.70337 34.4768H19.4915C19.6058 34.4758 19.7258 34.4653 19.8314 34.4355C19.9091 34.4134 19.9792 34.3798 20.0282 34.328L20.0416 34.3146C20.1117 34.2474 20.1549 34.1514 20.1799 34.0458C20.2115 33.9123 20.2192 33.7501 20.2192 33.5936L20.2183 32.9168C20.2154 32.4205 20.2135 31.9242 20.2202 31.4298L12.1418 31.4278C9.10145 31.4288 6.06017 31.4298 3.01889 31.424L3.01793 31.423Z" fill="#2B2A29"/>
</svg>
